/* XPM */
static char * calibrate_desel_xpm[] = {
"32 32 13 1",
"   c None",
".  c #000000",
"+  c #FFFFFF",
"@  c #1A1A1A",
"#  c #262626",
"$  c #E5E5E5",
"%  c #999999",
"&  c #585858",
"*  c #4C4C4C",
"=  c #656565",
"-  c #515151",
";  c #444444",
">  c #A5A5A5",
"  ...............               ",
"...+++++++++++++............... ",
".+@+.............++++++++++++++.",
".++..+...+.+..+#.+$$$$$$$$$$.$%.",
"......+.+++++.+#.++++++++++..++.",
".++++++++..+.++#............+++.",
"........+.&+.+.#............+$+.",
".+++++++++++.++#..+.+.+.+.+.+$+.",
"......+......++#..+.+.+.+.+.+$+.",
".++.*.+..+.+..+#............+$+.",
"......+..+.++.+#..+.+.+.+.+.+$+.",
".++..+++.+.+..+#..+.+.+.+.+.+$+.",
".....++.++++..+#............+$+.",
".+++.....+.+.++#..+.+.+.+.+.+$+.",
"...+.+=..+.++.+#..+.+.+.+.+.+$+.",
".+.+.+.+++.+..+#............+$+.",
".+.+.+.+...++++#..+.+.+.+.+.+$+.",
".+.+...+...+..+#..+.+.+.+.+.+$+.",
".+.+..+++.+++.+#............+$+.",
".+.+.++.+++.+++#............+$+.",
".+.+..++..++...#.++++++++++++++.",
".+.+.+++.+++.++#.+......-.+.;++.",
".+.+.....+...++#.++.+.+.+...+++.",
".+.+.++++++++++#.++++++++++++++.",
".+.+++++++++++++.++++++++++++++.",
" ..+.#########++............... ",
"  ...............+++++.         ",
"         .++++++++++++.         ",
"      ....................      ",
"     .++++++++++++++++++++.     ",
"     .+>>>>>>>>>>>>>>>>>>+.     ",
"     ......................     "};
