/* XPM */
static char * cfgopen_desel_xpm[] = {
"22 22 28 1",
" 	c None",
".	c #000000",
"+	c #FFFFFF",
"@	c #FFFFA9",
"#	c #FFFF00",
"$	c #FFFF68",
"%	c #FFFFE1",
"&	c #FFFFFA",
"*	c #3B2714",
"=	c #00005F",
"-	c #404033",
";	c #FF9E00",
">	c #AAAAB5",
",	c #FFFFD7",
"'	c #333326",
")	c #FAFAFF",
"!	c #EEEEFA",
"~	c #7B7B87",
"{	c #DBDBF2",
"]	c #FFFFE4",
"^	c #B5B5C0",
"/	c #B3B3B2",
"(	c #FF0000",
"_	c #00FFFF",
":	c #FFFFB5",
"<	c #FFFFC3",
"[	c #F6F6FF",
"}	c #F8F8FF",
"         .....        ",
"       ......... .    ",
"      ..      ....    ",
"     .         ...    ",
"              ....    ",
"  ....                ",
" .++++.               ",
".++++++.........      ",
".+++++++++++++++@     ",
".+++#.................",
".+++..++++++++++++++++",
".++$.++.............+.",
".++#.+%+++++++++&+++. ",
"=+#..+-+++++++++++++. ",
".+;.+++++++>+,+++++.  ",
".+..+'+++)+!+~+{+++.  ",
".+.++++++]+^+/++++..  ",
"(._+.:+++++<+[++++.   ",
".++++++++++++++++.    ",
".++++++++++++++++.    ",
".}...............     ",
"                      "};
