/* XPM */
static char * cfgsave_desel_xpm[] = {
"22 22 11 1",
" 	c None",
".	c #6B6B6B",
"+	c #000000",
"@	c #FFFFFF",
"#	c #180000",
"$	c #2B2B2B",
"%	c #5C5C5C",
"&	c #2D2D2D",
"*	c #3B3B3B",
"=	c #878787",
"-	c #5B5B5B",
"     .+               ",
"     +@+@@            ",
"    @@@++++@@         ",
"    +@@+@@++++@@      ",
"    +@+@@@@@@++++@@   ",
"   @@@+@@@@@@@@@++@+@ ",
"   +@@+@@@@@@@@@@+@@+ ",
"   +@+@@@@@@@@@@+#+@@ ",
"  @@@+@@@@@@@@@@++@+  ",
"  @@@++@@@@@@@@@++@+  ",
"  +@@@++++@@@@@+++@@  ",
" @@@@@@@@++++@@++@+   ",
" @@@+++@@@@@+++@+@+   ",
" +@++@++++@@@@@++@@   ",
".@@++@@@@+++@@@+@+    ",
"$@@+@@+@@@@+++++@+    ",
"%+@+@@@&+@+@@+*+@@    ",
" @@++@@@@@+@@++@+     ",
"    @@++@+@@+=+@+     ",
"       @@++@+@+@@     ",
"          @@+@@+      ",
"             .+-      "};
