/* XPM */
static char * check_pic_desel_xpm[] = {
"32 32 45 1",
" 	c None",
".	c #4D4D4D",
"+	c #333333",
"@	c #000000",
"#	c #FFFFFF",
"$	c #F9F9F9",
"%	c #4A4A4A",
"&	c #EDEDED",
"*	c #313131",
"=	c #C6C6C6",
"-	c #2C2C2C",
";	c #2E2E2E",
">	c #3D3D3D",
",	c #555555",
"'	c #181818",
")	c #AEAEAE",
"!	c #818181",
"~	c #323232",
"{	c #707070",
"]	c #4E4E4E",
"^	c #646464",
"/	c #282828",
"(	c #575757",
"_	c #484848",
":	c #2F2F2F",
"<	c #D9D9D9",
"[	c #898989",
"}	c #BABABA",
"|	c #868686",
"1	c #212121",
"2	c #909090",
"3	c #7C7C7C",
"4	c #ACACAC",
"5	c #626262",
"6	c #DADADA",
"7	c #3B3B3B",
"8	c #1C1C1C",
"9	c #0A0A0A",
"0	c #9D9D9D",
"a	c #A1A1A1",
"b	c #6E6E6E",
"c	c #737373",
"d	c #232323",
"e	c #929292",
"f	c #303030",
"       .+++++                   ",
"     @@######@$                 ",
"    @##########@#@              ",
"   @####@@@@@@##@######         ",
"  @####@@##@@@@#%@# @@#@        ",
" @###@@@####@@@@&@#@@#@##       ",
" @###@@@@##@@@@*=-@##@#@@#      ",
";####@@@@@@@>,')#!@@@#@@#@#     ",
"~###@@@@@@@@@@*{##@@@@##@@@#    ",
"~##]@@@#####@@{^##@%@@@@@@@#@   ",
"~##/@@@@@###@@({##@@_:::@@#@@   ",
"*##<@@@(@###@@[}##@@|::@@#@@@@  ",
"1##2@@@3@###@45##6@@7#@@#@@@#@  ",
"8###@@9@@###@02##a@##@@#@@@##@  ",
" @##@@@@@###@@@(#@@@#@#@@@##b## ",
" @###@@#######@c#@#d@#@@@@@#@@# ",
"  @##e@@@@@@@@@@@@#@#@@@#@ @@#  ",
"  #@###@@@@@@@f@@#@#@@@##@ #@#  ",
"  ##@####@@####@#@#@@@##b## @   ",
"  # @@@@####@@@#@#@@@@@#@@# #   ",
"  # @@@#@@@@##@@#@@@#@ @@@#     ",
"    @@@@#@@@@@@#@@@##@ #@#      ",
"     @@@@#@@@@#@@@##b## @       ",
"     @@@@@#@@#@@@@@#@@# #       ",
"      @@@@@##@@@#@ @@@#         ",
"       @@@@@#@@##@ #@#          ",
"        @@@@#@##b## @           ",
"         @@@#@@#@@# #           ",
"          @#@# @@@#             ",
"               #@#              ",
"                @               ",
"                :               "};
