/* XPM */
static char * check_pic_xpm[] = {
"32 32 252 2",
"  	c None",
". 	c #385467",
"+ 	c #0A3F68",
"@ 	c #0D4068",
"# 	c #B9BDBE",
"$ 	c #C9CDCF",
"% 	c #D6D9DB",
"& 	c #C9D3D9",
"* 	c #9AB1C0",
"= 	c #819EAD",
"- 	c #C8CACA",
"; 	c #DDE1E4",
"> 	c #D8E1E6",
", 	c #CFDCE3",
"' 	c #C9D8E2",
") 	c #BCD1DD",
"! 	c #ADC7D5",
"~ 	c #9CBBCB",
"{ 	c #84A7BA",
"] 	c #668EA4",
"^ 	c #677076",
"/ 	c #2F2F2F",
"( 	c #CFD1D3",
"_ 	c #E5EBEE",
": 	c #D2E1E9",
"< 	c #B3CDDB",
"[ 	c #9CBED1",
"} 	c #84AEC6",
"| 	c #5495B5",
"1 	c #5295B6",
"2 	c #3885AD",
"3 	c #4187AC",
"4 	c #4C86A6",
"5 	c #427797",
"6 	c #9FA6AE",
"7 	c #575757",
"8 	c #7F7F7F",
"9 	c #BABFC2",
"0 	c #E0E8EA",
"a 	c #C8DAE3",
"b 	c #A8C8D8",
"c 	c #7FAFC7",
"d 	c #5594B5",
"e 	c #FFFFFF",
"f 	c #136E9D",
"g 	c #0F699A",
"h 	c #166A99",
"i 	c #1F6C99",
"j 	c #2C6F97",
"k 	c #24668D",
"l 	c #525456",
"m 	c #000000",
"n 	c #8E9CA2",
"o 	c #D2DBE0",
"p 	c #C3D7E0",
"q 	c #90B9CE",
"r 	c #65A1BD",
"s 	c #3A86AD",
"t 	c #0D5F92",
"u 	c #0C5C8F",
"v 	c #0D5C8F",
"w 	c #105E90",
"x 	c #145E8C",
"y 	c #18547A",
"z 	c #305777",
"A 	c #0F4269",
"B 	c #AEC2CD",
"C 	c #C8D8E0",
"D 	c #A2C2D3",
"E 	c #659EBD",
"F 	c #3B88AC",
"G 	c #1A72A1",
"H 	c #0F6A9A",
"I 	c #0D5F91",
"J 	c #0C5C8E",
"K 	c #0C5B8E",
"L 	c #0E5C8F",
"M 	c #0F5C8E",
"N 	c #105581",
"O 	c #10446E",
"P 	c #4C4F51",
"Q 	c #09395E",
"R 	c #6A8998",
"S 	c #BCCED8",
"T 	c #B4CDDA",
"U 	c #82AFC7",
"V 	c #3E87AE",
"W 	c #2278A3",
"X 	c #0F6A9B",
"Y 	c #0C6395",
"Z 	c #0D6093",
"` 	c #0D5E91",
" .	c #0E5E91",
"..	c #0D5484",
"+.	c #0D4671",
"@.	c #243F55",
"#.	c #9F9FA3",
"$.	c #BFBFBF",
"%.	c #093E67",
"&.	c #82A3B3",
"*.	c #B7CCD7",
"=.	c #8EB6CB",
"-.	c #5A96B6",
";.	c #2176A1",
">.	c #116B9B",
",.	c #0C6295",
"'.	c #0D5E90",
").	c #0E5D90",
"!.	c #0E5587",
"~.	c #0B446C",
"{.	c #123B5D",
"].	c #093E66",
"^.	c #7DA0B1",
"/.	c #A6C1D0",
"(.	c #72A5C0",
"_.	c #4184A9",
":.	c #156D9C",
"<.	c #0D6698",
"[.	c #196595",
"}.	c #0E5E90",
"|.	c #0E5485",
"1.	c #0C3B62",
"2.	c #6D93A8",
"3.	c #98B7C9",
"4.	c #619AB6",
"5.	c #2D78A1",
"6.	c #126999",
"7.	c #0C5F92",
"8.	c #176494",
"9.	c #0D5081",
"0.	c #093961",
"a.	c #0A3860",
"b.	c #093D65",
"c.	c #58849E",
"d.	c #89ADC1",
"e.	c #5790AF",
"f.	c #25739C",
"g.	c #0F6596",
"h.	c #0E5B8E",
"i.	c #0C4D7B",
"j.	c #08365E",
"k.	c #0B3558",
"l.	c #062A43",
"m.	c #467490",
"n.	c #789FB6",
"o.	c #4986A6",
"p.	c #1D6C98",
"q.	c #0C5F91",
"r.	c #0C5D90",
"s.	c #0D5D90",
"t.	c #0D5A8C",
"u.	c #0E5889",
"v.	c #0B4773",
"w.	c #073056",
"x.	c #193145",
"y.	c #052337",
"z.	c #255672",
"A.	c #5B88A1",
"B.	c #4780A0",
"C.	c #196693",
"D.	c #0C5A8D",
"E.	c #0C5A8C",
"F.	c #0C5689",
"G.	c #0C578A",
"H.	c #0D578A",
"I.	c #0E5787",
"J.	c #0E507C",
"K.	c #0A3D66",
"L.	c #073055",
"M.	c #243947",
"N.	c #DBDBDB",
"O.	c #000101",
"P.	c #356786",
"Q.	c #3B7395",
"R.	c #1C628E",
"S.	c #0E5A8A",
"T.	c #0E598A",
"U.	c #0D588A",
"V.	c #1F6291",
"W.	c #0B5183",
"X.	c #0B5082",
"Y.	c #0F5383",
"Z.	c #0F4C7A",
"`.	c #0D456E",
" +	c #083659",
".+	c #03192A",
"++	c #222324",
"@+	c #00060A",
"#+	c #10425C",
"$+	c #225A7F",
"%+	c #185883",
"&+	c #0E5281",
"*+	c #0D5382",
"=+	c #1B517C",
"-+	c #0A416B",
";+	c #08365B",
">+	c #082A48",
",+	c #1A374C",
"'+	c #0A395E",
")+	c #0A4370",
"!+	c #0D4879",
"~+	c #114A7C",
"{+	c #1E5582",
"]+	c #1D5380",
"^+	c #1E5481",
"/+	c #1E5380",
"(+	c #1E5280",
"_+	c #1E517E",
":+	c #1C4B77",
"<+	c #18436B",
"[+	c #072A4E",
"}+	c #052141",
"|+	c #020C16",
"1+	c #454545",
"2+	c #282F35",
"3+	c #053057",
"4+	c #0A3E69",
"5+	c #0A416E",
"6+	c #08416F",
"7+	c #06406E",
"8+	c #073F6C",
"9+	c #083D6C",
"0+	c #083C6A",
"a+	c #063763",
"b+	c #052E58",
"c+	c #072B53",
"d+	c #051E40",
"e+	c #4D5255",
"f+	c #272F35",
"g+	c #052448",
"h+	c #053054",
"i+	c #05325B",
"j+	c #063660",
"k+	c #05335D",
"l+	c #04325D",
"m+	c #04305B",
"n+	c #052951",
"o+	c #052346",
"p+	c #06213E",
"q+	c #020B10",
"r+	c #363B3E",
"s+	c #000306",
"t+	c #082A49",
"u+	c #06264B",
"v+	c #072949",
"w+	c #052545",
"x+	c #000102",
"y+	c #000407",
"z+	c #242728",
"A+	c #2B2B2B",
"B+	c #031B2D",
"C+	c #2B2D2E",
"              . + + + + +                                       ",
"          @ + # $ % & * = + +                                   ",
"        + - ; > , ' ) ! ~ { ] + ^ /                             ",
"      + ( _ : < [ } | 1 2 3 4 5 + 6 7 / 8 / /                   ",
"    + 9 0 a b c d e e f g h i j k + l   / / 7 m                 ",
"  @ n o p q r s e e e e t u v w x y z / / 7 m 8 7               ",
"  A B C D E F G H e e I J K K L M N O P 7 m 7 / / 8             ",
"Q R S T U V W X Y Z ` u u u v  . ...+.@./ #./ / $./ /           ",
"%.&.*.=.-.;.>.,.Z  .'.u v v ). . .!.~.{./ / #.#./ / / /         ",
"].^./.(._.:.<.e e e e e [.}. . . .|.+ 1./ / / / / / / 8 m       ",
"%.2.3.4.5.6.Y 7. .e e e 8.}. . .L 9.0.a./ / / / / / #.m m       ",
"b.c.d.e.f.g.7.`  .e e e v ). . .h.i.j.k./ / / / / #.m m m m     ",
"l.m.n.o.p.q.u r.s.e e e t.v v }.u.v.w.x./ / / / #.m m m #.m     ",
"y.z.A.B.C.J K D.E.e e e F.G.H.I.J.K.L.M./ / m #.m m m N.#.7     ",
"  O.P.Q.R.S.T.U.V.e e e W.X.Y.Z.`. +.+++/ m #.m m m N.N.#.#.7   ",
"  @+#+$+%+&+*+e e e e e e e =+-+;+>+,+/ m 8 m m m m m N.8 7 7   ",
"    m '+)+!+~+{+]+^+/+(+_+:+<+[+}+|+1+m #.m m m #.m   / 7 7     ",
"    2+m 3+4+5+6+7+8+9+0+a+b+c+d+m e+m 8 m m m N.#.7   #./ 8     ",
"    7 f+m g+h+i+j+k+l+m+n+o+p+q+r+m #.m m m N.N.#.#.7   /       ",
"    /   s+m m m t+u+v+w+x+m y+z+m 8 m m m m m N.8 7 7   /       ",
"    /   m m y+A+m m m m B+C+m m 8 m m m #.m   / 7 7 #.          ",
"        m m m m 8 m m m m m m 8 m m m N.#.7   #./ 8             ",
"          m m m m 8 m m m m 8 m m m N.N.#.#.7   /               ",
"          m m m m m 8 m m 8 m m m m m N.8 7 7   /               ",
"            m m m m m 8 8 m m m #.m   / 7 7 #.                  ",
"              m m m m / 7 m m N.#.7   #./ 8                     ",
"                m m m m / m N.N.#.#.7   /                       ",
"                  m m m / m m N.8 7 7   /                       ",
"                    m / m /   / 7 7 #.                          ",
"                              #./ 8                             ",
"                                /                               ",
"                                /                               "};
