/* XPM */
static char * device_calibration_xpm[] = {
"22 22 166 2",
"  	c None",
". 	c #B7B7B9",
"+ 	c #888886",
"@ 	c #BFC0BD",
"# 	c #929290",
"$ 	c #9A9A98",
"% 	c #6F706D",
"& 	c #363636",
"* 	c #D8D9D5",
"= 	c #DDDEDB",
"- 	c #DFE0DE",
"; 	c #E1E2E0",
"> 	c #E4E5E3",
", 	c #C3C4C2",
"' 	c #626261",
") 	c #4D4D4C",
"! 	c #D3D5D0",
"~ 	c #D5D7D2",
"{ 	c #E4E5E2",
"] 	c #E0E1DE",
"^ 	c #DDDFDB",
"/ 	c #DCDDDB",
"( 	c #DCDDDA",
"_ 	c #D5D6D3",
": 	c #DEDFDD",
"< 	c #CECECC",
"[ 	c #BABAB8",
"} 	c #92948F",
"| 	c #A5A5A2",
"1 	c #A3A4A1",
"2 	c #ABACA9",
"3 	c #A0A19E",
"4 	c #C9CAC8",
"5 	c #E8E9E7",
"6 	c #E7E8E7",
"7 	c #F0F0F0",
"8 	c #EBEBEB",
"9 	c #D2D3D2",
"0 	c #A2A3A0",
"a 	c #707070",
"b 	c #666765",
"c 	c #636462",
"d 	c #5B5C5A",
"e 	c #7F7F7D",
"f 	c #4D4E4C",
"g 	c #A7A8A5",
"h 	c #DDDEDD",
"i 	c #E1E1E0",
"j 	c #AFB0AD",
"k 	c #989A96",
"l 	c #9EA09B",
"m 	c #939690",
"n 	c #535452",
"o 	c #D7D8D6",
"p 	c #E7E7E6",
"q 	c #E0E1DF",
"r 	c #CDCECB",
"s 	c #CCCDCA",
"t 	c #CBCDCA",
"u 	c #CBCCC9",
"v 	c #B8B9B6",
"w 	c #C2C3C1",
"x 	c #9FA19B",
"y 	c #81837E",
"z 	c #737472",
"A 	c #393A39",
"B 	c #1A1A1A",
"C 	c #888888",
"D 	c #C5C7C3",
"E 	c #C7C9C5",
"F 	c #CACCC7",
"G 	c #CBCDC8",
"H 	c #CACDC8",
"I 	c #C8CAC5",
"J 	c #C6C7C4",
"K 	c #D1D2D0",
"L 	c #B7B9B6",
"M 	c #8E8F8C",
"N 	c #373737",
"O 	c #0C0C0C",
"P 	c #A5A5A5",
"Q 	c #F8F8F8",
"R 	c #9A9A9B",
"S 	c #BCBDBB",
"T 	c #767875",
"U 	c #767774",
"V 	c #858782",
"W 	c #989B95",
"X 	c #A3A5A1",
"Y 	c #B8B9B5",
"Z 	c #C0C2BF",
"` 	c #C5C6C3",
" .	c #C2C3BF",
"..	c #B8BAB6",
"+.	c #797B77",
"@.	c #262725",
"#.	c #626360",
"$.	c #BABAB9",
"%.	c #E1E1E1",
"&.	c #737373",
"*.	c #A8A8A8",
"=.	c #D0D0D0",
"-.	c #606060",
";.	c #353535",
">.	c #070707",
",.	c #090909",
"'.	c #0B0B0B",
").	c #0F0F0F",
"!.	c #666764",
"~.	c #B7B8B5",
"{.	c #BABCB8",
"].	c #C4C5C1",
"^.	c #B3B5B2",
"/.	c #C2C4C0",
"(.	c #D3D4D1",
"_.	c #8D8E8D",
":.	c #4F4F4F",
"<.	c #717171",
"[.	c #727272",
"}.	c #323232",
"|.	c #010101",
"1.	c #030303",
"2.	c #050505",
"3.	c #61625F",
"4.	c #B8BAB7",
"5.	c #B7B9B5",
"6.	c #C0C2BE",
"7.	c #B4B6B2",
"8.	c #9FA19C",
"9.	c #BBBDB9",
"0.	c #CCCCCA",
"a.	c #060606",
"b.	c #4A4A4A",
"c.	c #121212",
"d.	c #000000",
"e.	c #040404",
"f.	c #1D1D1C",
"g.	c #6A6B67",
"h.	c #BDBEBA",
"i.	c #B1B4AD",
"j.	c #999A96",
"k.	c #9A9B99",
"l.	c #858783",
"m.	c #464646",
"n.	c #878985",
"o.	c #AFB1AC",
"p.	c #BDBEBB",
"q.	c #C0C2BD",
"r.	c #585859",
"s.	c #494949",
"t.	c #686966",
"u.	c #777975",
"v.	c #9A9C97",
"w.	c #AEB0AA",
"x.	c #ADB0A9",
"y.	c #999B97",
"z.	c #2C2C2C",
"A.	c #B5B7B4",
"B.	c #525252",
"C.	c #959595",
"D.	c #B4B4B1",
"E.	c #3C3C3C",
"F.	c #B6B6B6",
"G.	c #939493",
"H.	c #656665",
"I.	c #5E5E5E",
"                                            ",
"                                            ",
"                      .                     ",
"                    + @ # $ % &             ",
"                  * = - ; > , ' )           ",
"          ! ~ { ] ^ / ( _ = : < < [         ",
"            } | 1 2 3 4 5 6 7 8 9 0 a       ",
"            b c d e f g h i j k l m n       ",
"        o p q r s t u v w r x y z A B C     ",
"          D E F G H I @ J K L M N O P Q     ",
"      R S T U V W X Y Z `  ...+.@.#.$.%.&.  ",
"    *.=.-.;.>.,.'.).!.~.{.].^.l /.(._.:.    ",
"    <.[.}.|.1.2.>.,.3.4.5.6.7.8.9.0.        ",
"      a.b.c.d.|.e.f.g.Z h.i...j.k.l.        ",
"      d.'.m.).d.>.n.o.p.5.q.~.M r.          ",
"        d.,.s.).a.t.u.v.w.x.y.              ",
"          d.,.m.m.z.d...    A.              ",
"            d.B B.O C.D.                    ",
"              d.E.& F.G.H.                  ",
"                      I.                    ",
"                                            ",
"                                            "};
