/* XPM */
static char * device_settings_xpm[] = {
"22 22 167 2",
"  	c None",
". 	c #B7B7B9",
"+ 	c #979799",
"@ 	c #CFCFCF",
"# 	c #848484",
"$ 	c #5F5F5F",
"% 	c #3C3C3C",
"& 	c #313131",
"* 	c #F7F7F8",
"= 	c #F0F0F2",
"- 	c #D2D2DA",
"; 	c #8A8A8F",
"> 	c #606061",
", 	c #373737",
"' 	c #383838",
") 	c #404040",
"! 	c #454545",
"~ 	c #D7D7DE",
"{ 	c #FFFFFF",
"] 	c #FDFDFE",
"^ 	c #B5B5BE",
"/ 	c #454549",
"( 	c #2D2D2D",
"_ 	c #4E4E4F",
": 	c #6B6B6D",
"< 	c #787879",
"[ 	c #3D3D3D",
"} 	c #6F6F70",
"| 	c #BBBBC6",
"1 	c #EAEAEE",
"2 	c #E6E6EA",
"3 	c #6A6A71",
"4 	c #2A2A2B",
"5 	c #2B2B2B",
"6 	c #414141",
"7 	c #626262",
"8 	c #717172",
"9 	c #616167",
"0 	c #ADADB8",
"a 	c #F5F5F7",
"b 	c #F8F8FA",
"c 	c #EBEBEF",
"d 	c #83838D",
"e 	c #282829",
"f 	c #272727",
"g 	c #292929",
"h 	c #DBDBE2",
"i 	c #AEAEBD",
"j 	c #A9A9B5",
"k 	c #E6E6EB",
"l 	c #EFEFF3",
"m 	c #DFDFE6",
"n 	c #73737E",
"o 	c #242424",
"p 	c #232323",
"q 	c #5C5C5C",
"r 	c #393939",
"s 	c #070707",
"t 	c #888888",
"u 	c #DFDFE5",
"v 	c #C0C0CD",
"w 	c #E2E2E8",
"x 	c #E5E5EA",
"y 	c #CBCBD6",
"z 	c #6B6B7A",
"A 	c #372E22",
"B 	c #21201F",
"C 	c #545454",
"D 	c #0C0C0C",
"E 	c #A5A5A5",
"F 	c #F8F8F8",
"G 	c #95959B",
"H 	c #9D9DB0",
"I 	c #D9D9E0",
"J 	c #DDDDE5",
"K 	c #DDDDE4",
"L 	c #CECED8",
"M 	c #B7A493",
"N 	c #AF842E",
"O 	c #836F54",
"P 	c #353534",
"Q 	c #000000",
"R 	c #121212",
"S 	c #8F8F8F",
"T 	c #E1E1E1",
"U 	c #737373",
"V 	c #A8A8A8",
"W 	c #D0D0D0",
"X 	c #616168",
"Y 	c #6F6F83",
"Z 	c #ACACBC",
"` 	c #BDBDCB",
" .	c #BCBCC9",
"..	c #BFBFCC",
"+.	c #CBCBD5",
"@.	c #CEB698",
"#.	c #DA9C34",
"$.	c #E99615",
"%.	c #CF9624",
"&.	c #4F3B1C",
"*.	c #A7A6A5",
"=.	c #4F4F4F",
"-.	c #717171",
";.	c #727272",
">.	c #333333",
",.	c #111117",
"'.	c #2E2E3C",
").	c #484859",
"!.	c #454555",
"~.	c #5D5D70",
"{.	c #B7A599",
"].	c #D89C36",
"^.	c #EF9C16",
"/.	c #FC9E11",
"(.	c #F2A319",
"_.	c #D39F39",
":.	c #EDDAC2",
"<.	c #060606",
"[.	c #4A4A4A",
"}.	c #010101",
"|.	c #030304",
"1.	c #050505",
"2.	c #1E170F",
"3.	c #986C28",
"4.	c #F2AD1E",
"5.	c #FEB51F",
"6.	c #FFB61F",
"7.	c #FFB51F",
"8.	c #F5B01F",
"9.	c #D9A339",
"0.	c #847055",
"a.	c #0B0B0B",
"b.	c #464646",
"c.	c #0F0F0F",
"d.	c #030302",
"e.	c #665540",
"f.	c #C48D24",
"g.	c #F8C129",
"h.	c #FFC92B",
"i.	c #FFBD24",
"j.	c #FFB01B",
"k.	c #F8AD1D",
"l.	c #090909",
"m.	c #494949",
"n.	c #020202",
"o.	c #353535",
"p.	c #2A2A2A",
"q.	c #37240D",
"r.	c #AF7D22",
"s.	c #F7C62D",
"t.	c #FFB21C",
"u.	c #FF970C",
"v.	c #FF990E",
"w.	c #2C2C2C",
"x.	c #595958",
"y.	c #F6A61A",
"z.	c #FFA817",
"A.	c #FF9B0E",
"B.	c #1A1A1A",
"C.	c #525252",
"D.	c #959595",
"E.	c #AFAFAF",
"F.	c #363636",
"G.	c #B6B6B6",
"H.	c #939393",
"I.	c #636363",
"J.	c #5E5E5E",
"                                            ",
"                                            ",
"                      .                     ",
"                    + @ # $ % &             ",
"                * = - ; > , ' ) !           ",
"                ~ { ] ^ / ( _ : < [         ",
"              } | 1 { 2 3 4 5 6 % & 7       ",
"            8 9 0 a b c d e f g 5 $ %       ",
"        h i | j k l l m n o p f q r s t     ",
"          u v w k k x y z A B C , D E F     ",
"      G H I J K K K L v M N O P Q R S T U   ",
"    V W X Y Z `  ...+.@.#.$.%.&.*.    =.    ",
"    -.;.>.,.'.).!.~.{.].^./.(._.:.          ",
"      <.[.R }.|.1.2.3.4.5.6.7.8.9.0.        ",
"      Q a.b.c.Q Q d.e.f.g.h.i.j.k.          ",
"        Q l.m.c.n.o.p.q.r.s.t.u.v.          ",
"          Q l.b.b.w.Q x.    y.z.A.          ",
"            Q B.C.D D.E.                    ",
"              Q % F.G.H.I.                  ",
"                      J.                    ",
"                                            ",
"                                            "};
