/* XPM */
static char * device_code_memory_xpm[] = {
"22 22 181 2",
"  	c None",
". 	c #858683",
"+ 	c #E2E2E1",
"@ 	c #E8E8E7",
"# 	c #B0B0AF",
"$ 	c #6F706F",
"% 	c #5F5F5F",
"& 	c #3C3C3C",
"* 	c #313131",
"= 	c #B0B1AF",
"- 	c #8A8C89",
"; 	c #DCDCDC",
"> 	c #9D9D9B",
", 	c #4F504F",
"' 	c #373839",
") 	c #383939",
"! 	c #404040",
"~ 	c #454545",
"{ 	c #D5D5D4",
"] 	c #9C9D9A",
"^ 	c #868784",
"/ 	c #D1D1D0",
"( 	c #858686",
"_ 	c #5E6162",
": 	c #6A6E6F",
"< 	c #505354",
"[ 	c #666668",
"} 	c #6A6D6D",
"| 	c #3D3E3E",
"1 	c #E3E3E2",
"2 	c #E5E6E4",
"3 	c #D8D9D8",
"4 	c #EEEFEE",
"5 	c #9B9D9D",
"6 	c #979999",
"7 	c #C1C3C2",
"8 	c #4E5253",
"9 	c #5E6263",
"0 	c #8D9090",
"a 	c #4E5252",
"b 	c #595959",
"c 	c #888987",
"d 	c #9F9F9D",
"e 	c #969794",
"f 	c #787B7A",
"g 	c #898C8C",
"h 	c #797C7D",
"i 	c #B2B3B2",
"j 	c #CBCCCA",
"k 	c #CBCBCA",
"l 	c #C9CBC9",
"m 	c #CDCECC",
"n 	c #8D8F8F",
"o 	c #17191A",
"p 	c #A0A0A1",
"q 	c #CFCFCF",
"r 	c #5F605F",
"s 	c #434443",
"t 	c #555858",
"u 	c #9FA2A1",
"v 	c #B5B6B6",
"w 	c #B2B3B1",
"x 	c #9C9E9B",
"y 	c #A3A4A1",
"z 	c #B5B6B3",
"A 	c #C5C7C5",
"B 	c #4E5152",
"C 	c #090A0A",
"D 	c #888888",
"E 	c #ADADAD",
"F 	c #5E5F5D",
"G 	c #4E4F4E",
"H 	c #222322",
"I 	c #525656",
"J 	c #939595",
"K 	c #D0D2CF",
"L 	c #A9ABA7",
"M 	c #676B6A",
"N 	c #595D5D",
"O 	c #BDBFBC",
"P 	c #C6C9C5",
"Q 	c #6A6B6C",
"R 	c #EEEEEE",
"S 	c #939395",
"T 	c #AEAEAE",
"U 	c #797A78",
"V 	c #AEAFAC",
"W 	c #8C8D8B",
"X 	c #8E8F8D",
"Y 	c #A7A9A8",
"Z 	c #55595B",
"` 	c #CBCDCA",
" .	c #B9BBB7",
"..	c #767978",
"+.	c #666969",
"@.	c #CDD0CC",
"#.	c #CDCFCA",
"$.	c #989A98",
"%.	c #717474",
"&.	c #BEBFBF",
"*.	c #737373",
"=.	c #A8A8A8",
"-.	c #D0D0D0",
";.	c #5B5C5B",
">.	c #8F908D",
",.	c #EEEEED",
"'.	c #D3D3D2",
").	c #D9DAD8",
"!.	c #E4E5E4",
"~.	c #626666",
"{.	c #B5B7B4",
"].	c #C5C8C3",
"^.	c #D4D6D2",
"/.	c #DCDFDB",
"(.	c #CFD3CD",
"_.	c #B3B7B3",
":.	c #7C807F",
"<.	c #666A6A",
"[.	c #4D4E4E",
"}.	c #717171",
"|.	c #727272",
"1.	c #373737",
"2.	c #6C6C6B",
"3.	c #DCDCDB",
"4.	c #545552",
"5.	c #686966",
"6.	c #BABCBC",
"7.	c #666A69",
"8.	c #A6A8A5",
"9.	c #CFD2CC",
"0.	c #D3D8D1",
"a.	c #B6B9B5",
"b.	c #7B7F7E",
"c.	c #797B7C",
"d.	c #060606",
"e.	c #7E7F7C",
"f.	c #989996",
"g.	c #A6A7A5",
"h.	c #DBDBDB",
"i.	c #606463",
"j.	c #646867",
"k.	c #2C2F30",
"l.	c #313637",
"m.	c #6D716F",
"n.	c #757876",
"o.	c #585B5C",
"p.	c #575757",
"q.	c #000000",
"r.	c #101010",
"s.	c #E4E4E3",
"t.	c #D4D5D3",
"u.	c #D4D4D2",
"v.	c #7C7E7B",
"w.	c #111415",
"x.	c #030303",
"y.	c #626364",
"z.	c #484D4E",
"A.	c #434546",
"B.	c #020202",
"C.	c #30312F",
"D.	c #565754",
"E.	c #3A3B39",
"F.	c #393B38",
"G.	c #636461",
"H.	c #2F2F2E",
"I.	c #5A5A5A",
"J.	c #BABABA",
"K.	c #828283",
"L.	c #353535",
"M.	c #3B3B3B",
"N.	c #222222",
"O.	c #636363",
"P.	c #181818",
"Q.	c #4E4E4E",
"R.	c #0C0C0C",
"S.	c #959595",
"T.	c #AFAFAF",
"U.	c #363636",
"V.	c #B6B6B6",
"W.	c #939393",
"X.	c #5E5E5E",
"                                            ",
"                                            ",
"                      .                     ",
"              +     @ # $ % & *             ",
"                = - ; > , ' ) ! ~           ",
"              { ] ^ / ( _ : < [ } |         ",
"              1 2 3 4 5 6 7 8 9 0 a b       ",
"            c d e f g h i j k l m n o       ",
"          p q r s t u v w x y z A B C D     ",
"          E F G H I J K L M N O P 8 Q R     ",
"      S T U V W X Y Z `  ...+.@.#.$.%.&.*.  ",
"    =.-.;.>.,.'.).!.~.{.].^./.(._.:.<.[.    ",
"    }.|.1.2.3.4.5.6.7.8.{.9.0.a.b.c.        ",
"      d., e.!.f.g.h.i.j.k.l.m.n.o.p.        ",
"      q.r.e s.t.u.s.v.w.x.y.z.  A.          ",
"        B.C.D.E.F.G.H.q.I.J.K.              ",
"          q.d.L.M.N.q.p.    O.              ",
"            q.P.Q.R.S.T.                    ",
"              q.& U.V.W.O.                  ",
"                      X.                    ",
"                                            ",
"                                            "};
