/* XPM */
static char * device_eeprom_memory_xpm[] = {
"22 22 163 2",
"  	c None",
". 	c #B7B7B9",
"+ 	c #3F5779",
"@ 	c #768EB0",
"# 	c #496183",
"$ 	c #536680",
"% 	c #3B3D3F",
"& 	c #313131",
"* 	c #3F669D",
"= 	c #658294",
"- 	c #778F91",
"; 	c #799192",
"> 	c #668393",
", 	c #658395",
"' 	c #4E71A0",
") 	c #223C60",
"! 	c #3D4249",
"~ 	c #454545",
"{ 	c #446BA0",
"] 	c #B7AE4C",
"^ 	c #8D914F",
"/ 	c #7D8756",
"( 	c #ACA43F",
"_ 	c #B4A93B",
": 	c #828A51",
"< 	c #778259",
"[ 	c #4873A9",
"} 	c #4A72A8",
"| 	c #38537A",
"1 	c #787879",
"2 	c #3D3D3D",
"3 	c #446AA0",
"4 	c #958D3B",
"5 	c #727844",
"6 	c #66724E",
"7 	c #8A8330",
"8 	c #90872B",
"9 	c #6B754A",
"0 	c #5D6A55",
"a 	c #426EA7",
"b 	c #537CB0",
"c 	c #315282",
"d 	c #3C3C3C",
"e 	c #626262",
"f 	c #436AA0",
"g 	c #40689A",
"h 	c #396190",
"i 	c #3A6190",
"j 	c #365F92",
"k 	c #426EA8",
"l 	c #547CB0",
"m 	c #2A4872",
"n 	c #2B2B2B",
"o 	c #5F5F5F",
"p 	c #416EA9",
"q 	c #3868A5",
"r 	c #3867A4",
"s 	c #3867A3",
"t 	c #3766A2",
"u 	c #3867A2",
"v 	c #557BAD",
"w 	c #2B4A77",
"x 	c #5C5C5C",
"y 	c #393939",
"z 	c #070707",
"A 	c #888888",
"B 	c #3A669F",
"C 	c #38649F",
"D 	c #37649F",
"E 	c #37649E",
"F 	c #36639C",
"G 	c #36639B",
"H 	c #36629A",
"I 	c #356098",
"J 	c #4E76A9",
"K 	c #385989",
"L 	c #373737",
"M 	c #0C0C0C",
"N 	c #A5A5A5",
"O 	c #F8F8F8",
"P 	c #939395",
"Q 	c #A6AEB9",
"R 	c #3E69A1",
"S 	c #3F6DA8",
"T 	c #3968A5",
"U 	c #3968A3",
"V 	c #3866A2",
"W 	c #3866A1",
"X 	c #3865A0",
"Y 	c #3E69A0",
"Z 	c #4E74A7",
"` 	c #234474",
" .	c #000000",
"..	c #0A0A0A",
"+.	c #8F8F8F",
"@.	c #E1E1E1",
"#.	c #737373",
"$.	c #A8A8A8",
"%.	c #D0D0D0",
"&.	c #535B66",
"*.	c #3C67A0",
"=.	c #3363A0",
"-.	c #32619E",
";.	c #32619D",
">.	c #315F9B",
",.	c #315F9A",
"'.	c #38639A",
").	c #4D74A6",
"!.	c #325383",
"~.	c #A7A7A7",
"{.	c #4F4F4F",
"].	c #717171",
"^.	c #727272",
"/.	c #383F4B",
"(.	c #3C679F",
"_.	c #3665A1",
":.	c #32619F",
"<.	c #31609D",
"[.	c #31609C",
"}.	c #305E9A",
"|.	c #305E99",
"1.	c #366199",
"2.	c #5374A4",
"3.	c #FFFFFF",
"4.	c #060606",
"5.	c #49515D",
"6.	c #3B679F",
"7.	c #35639F",
"8.	c #305D98",
"9.	c #2F5C96",
"0.	c #315C95",
"a.	c #436594",
"b.	c #B1B1B1",
"c.	c #060E19",
"d.	c #34629D",
"e.	c #2F5B95",
"f.	c #2E5A92",
"g.	c #375888",
"h.	c #565657",
"i.	c #3F6AA1",
"j.	c #3B67A0",
"k.	c #3A659D",
"l.	c #3A649C",
"m.	c #39649B",
"n.	c #39639A",
"o.	c #376097",
"p.	c #4F76A7",
"q.	c #325A94",
"r.	c #34598D",
"s.	c #436BA0",
"t.	c #3E6499",
"u.	c #3A6094",
"v.	c #050C16",
"w.	c #101723",
"x.	c #2E3641",
"y.	c #111925",
"z.	c #727A85",
"A.	c #6A727E",
"B.	c #3B3B3B",
"C.	c #343434",
"D.	c #B2B2B2",
"E.	c #606060",
"F.	c #5E5E5E",
"                                            ",
"                                            ",
"                      .                     ",
"                    + @ # $ % &             ",
"          *     = - ; > , ' ) ! ~           ",
"          { ] ^ / ( _ : < [ } | 1 2         ",
"          3 4 5 6 7 8 9 0 a b c d & e       ",
"          f g h h i i i j k l m n o d       ",
"          3 p q q q r s t u v w x y z A     ",
"          f B C D E F G H I J K L M N O     ",
"      P Q 3 R S T U V W X Y Z `  ...+.@.#.  ",
"    $.%.&.f *.r =.-.;.>.,.'.).!.~.    {.    ",
"    ].^./.3 (._.:.<.[.}.|.1.).2.3.          ",
"      4.5.f 6.7.[.,.|.8.9.0.).a.b.].        ",
"       .c.3 6.d.>.|.8.9.e.f.).g.h.          ",
"        c.f i.j.B k.l.m.n.o.p.              ",
"          q.r.{ s.s.{ { { t.u.              ",
"            v.w.x.y.z.A.                    ",
"               .B.C.D.+.E.                  ",
"                      F.                    ",
"                                            ",
"                                            "};
