/* XPM */
static char * device_lock_xpm[] = {
"22 22 166 2",
"  	c None",
". 	c #A6A6AE",
"+ 	c #D7D7E0",
"@ 	c #BABAC6",
"# 	c #8B8B98",
"$ 	c #444447",
"% 	c #313131",
"& 	c #EFEFF1",
"* 	c #E1E1E5",
"= 	c #DDDDE1",
"- 	c #E9E9EB",
"; 	c #D7D7DF",
"> 	c #6C6C7B",
", 	c #444446",
"' 	c #454545",
") 	c #EEEEF0",
"! 	c #A1A1B0",
"~ 	c #9696A4",
"{ 	c #646471",
"] 	c #9191A0",
"^ 	c #E0E0E2",
"/ 	c #C1C1CD",
"( 	c #6C6C74",
"_ 	c #787879",
": 	c #3D3D3D",
"< 	c #E5E5E9",
"[ 	c #BFBFC9",
"} 	c #737380",
"| 	c #565657",
"1 	c #272728",
"2 	c #3F3F49",
"3 	c #A3A3B0",
"4 	c #DBDBDF",
"5 	c #6D6D7D",
"6 	c #3C3C3C",
"7 	c #626262",
"8 	c #787889",
"9 	c #EEEEEE",
"0 	c #9999AA",
"a 	c #49494B",
"b 	c #1F1F1F",
"c 	c #212121",
"d 	c #232323",
"e 	c #858597",
"f 	c #DCDCDC",
"g 	c #5E5E6F",
"h 	c #2B2B2B",
"i 	c #5F5F5F",
"j 	c #A0A0A0",
"k 	c #9B9AAA",
"l 	c #E3E2E0",
"m 	c #8A8999",
"n 	c #1C1B1A",
"o 	c #1E1D1B",
"p 	c #201F1D",
"q 	c #22211F",
"r 	c #807F90",
"s 	c #D5D4D2",
"t 	c #5A5969",
"u 	c #5C5B5B",
"v 	c #393939",
"w 	c #070707",
"x 	c #888888",
"y 	c #D8C19D",
"z 	c #B29368",
"A 	c #DDBE88",
"B 	c #B49668",
"C 	c #81622C",
"D 	c #82632D",
"E 	c #83642E",
"F 	c #84652F",
"G 	c #B19365",
"H 	c #D8B983",
"I 	c #A98A5D",
"J 	c #7D643E",
"K 	c #16130E",
"L 	c #A5A5A5",
"M 	c #F8F8F8",
"N 	c #939395",
"O 	c #C2B7A8",
"P 	c #D3A94F",
"Q 	c #F4E064",
"R 	c #F5E255",
"S 	c #F5E252",
"T 	c #F4DF54",
"U 	c #D0A440",
"V 	c #2B2011",
"W 	c #8F8F8F",
"X 	c #E1E1E1",
"Y 	c #737373",
"Z 	c #A8A8A8",
"` 	c #D0D0D0",
" .	c #6C6154",
"..	c #D2AD41",
"+.	c #FFEC3E",
"@.	c #FFEC37",
"#.	c #FFEB37",
"$.	c #FFD52C",
"%.	c #D29021",
"&.	c #4F4F4F",
"*.	c #717171",
"=.	c #727272",
"-.	c #4C4239",
";.	c #C69C39",
">.	c #FFDE35",
",.	c #FFDD30",
"'.	c #FFCE28",
").	c #FFAE17",
"!.	c #C67E1D",
"~.	c #060606",
"{.	c #59504A",
"].	c #BA8C34",
"^.	c #FFCC2C",
"/.	c #FFCB27",
"(.	c #FFCA26",
"_.	c #FFC825",
":.	c #FFBA1D",
"<.	c #FFA813",
"[.	c #FFA00F",
"}.	c #BA711A",
"|.	c #655C56",
"1.	c #000000",
"2.	c #160D07",
"3.	c #B98430",
"4.	c #FFBF24",
"5.	c #FFC020",
"6.	c #FFBE1F",
"7.	c #FFB71C",
"8.	c #FFB31A",
"9.	c #FFAC16",
"0.	c #FFA411",
"a.	c #FF9F0F",
"b.	c #FF990C",
"c.	c #BA6D18",
"d.	c #B9812E",
"e.	c #FFBD23",
"f.	c #FFB51B",
"g.	c #FFB018",
"h.	c #FFAB15",
"i.	c #FFA512",
"j.	c #FFA110",
"k.	c #FF9B0D",
"l.	c #FF970B",
"m.	c #FF9208",
"n.	c #BA6916",
"o.	c #B38036",
"p.	c #FDB824",
"q.	c #FFA814",
"r.	c #FF9E0F",
"s.	c #FF9A0C",
"t.	c #FF9409",
"u.	c #FF8F06",
"v.	c #FD8904",
"w.	c #B36316",
"x.	c #7F5121",
"y.	c #80501F",
"z.	c #875626",
"A.	c #8C5A2A",
"B.	c #9C6A3A",
"C.	c #946131",
"D.	c #8D592A",
"E.	c #363636",
"F.	c #B6B6B6",
"G.	c #939393",
"H.	c #636363",
"I.	c #5E5E5E",
"                                            ",
"                                            ",
"                      .                     ",
"                    + + @ # $ %             ",
"                  & * = - ; > , '           ",
"                ) ! ~ { ] ^ / ( _ :         ",
"              < [ } | 1 2 3 4 5 6 % 7       ",
"            8 9 0 a b c d e f g h i 6       ",
"          j k l m n o p q r s t u v w x     ",
"          y z A B C D E F G H I J K L M     ",
"      N O P Q R S S S S S S S T U V W X Y   ",
"    Z `  ...+.@.@.@.@.@.@.@.#.$.%.    &.    ",
"    *.=.-.;.>.,.,.,.,.,.,.,.'.).!.          ",
"      ~.{.].^./././.(.(._.:.<.[.}.|.        ",
"      1.2.3.4.5.6.:.7.8.9.0.a.b.c.          ",
"        2.d.e.:.f.g.h.i.j.k.l.m.n.          ",
"          o.p.8.).q.0.r.s.t.u.v.w.          ",
"            x.y.z.A.B.C.D.                  ",
"              1.6 E.F.G.H.                  ",
"                      I.                    ",
"                                            ",
"                                            "};
