/* XPM */
static char * editcopy_desel_xpm[] = {
"22 22 9 1",
" 	c None",
".	c #000000",
"+	c #FFFFFF",
"@	c #A8A8A8",
"#	c #121212",
"$	c #442B20",
"%	c #FEFEFE",
"&	c #0051FF",
"*	c #4A4821",
"                      ",
"      ....            ",
"  ....++.+@.          ",
"#.++++++.+++.         ",
" .+++..+.+...         ",
" .+...++...+...       ",
" .++++..+++++.....    ",
" .++..++++..+.++.+.   ",
"  .++++...+++.++.++.  ",
"  .+..++++$.+..+.+++.%",
"  .++++....+++.+.....%",
"   .+.++++&..+.+++++.%",
"   .++++...+++.+++++.%",
"   .+..+++++++.....+.%",
"   .+++++++....+++++.%",
"    *++............+.%",
"    ......++++++++++.%",
"        ..+........+.%",
"        ..++++++++++.%",
"         .++++++++++.%",
"         ............%",
"         %%%%%%%%%%%%+"};
