/* XPM */
static char * editdelete_desel_xpm[] = {
"22 22 26 1",
" 	c None",
".	c #535353",
"+	c #4A4A4A",
"@	c #424242",
"#	c #3A3A3A",
"$	c #313131",
"%	c #292929",
"&	c #212121",
"*	c #181818",
"=	c #101010",
"-	c #080808",
";	c #000000",
">	c #FFFFFF",
",	c #CBFFFF",
"'	c #D7FFFF",
")	c #FF1111",
"!	c #FEBECA",
"~	c #BEFFFF",
"{	c #40FFFF",
"]	c #FFFF59",
"^	c #FF0000",
"/	c #7FFFFF",
"(	c #FFFFD7",
"_	c #00FFFF",
":	c #29FFFF",
"<	c #FDFFFF",
"   .+@#$%&*=-;;       ",
"   ;>>>>>>>>>;>;      ",
"   ;>>>>>>>>>;>>;     ",
"   ;>>>>>>>>>;>>>;    ",
"   ;>>>>>>>>>;>>>>;   ",
"   ;>>>>>>>>>;;;;;;   ",
"   ;>>>>>>>>>>>>>>;   ",
"   ;>>>>>>>>>>>,>>;   ",
"   ;>>>>>>>>>'>>>>;   ",
"   ;>>)>>>>!~{]>>>;   ",
"   ;>>;^>>>>>>^;>>;   ",
"   ;>>>;^>>/>^;>>>;   ",
"   ;>>>>;^>>^;>>>>;   ",
"   ;>>>>>;^^;>>(>>;   ",
"   ;>>>>>>^^>>>>>>;   ",
"   ;>>>>>^;;^>_:>>;   ",
"   ;>><>^;>>;^>_>>;   ",
"   ;>>>^;>>>>;^>>>;   ",
"   ;>>^;>>>>>_;^>>;   ",
"   ;>>>>>>>>>>>>>>;   ",
"   ;>>>>>>>>>>>>>>;   ",
"   ;;;;;;;;;;;;;;;;   "};
