/* XPM */
static char * edit_xpm[] = {
"22 22 187 2",
"  	c None",
". 	c #868686",
"+ 	c #828282",
"@ 	c #7E7E7E",
"# 	c #7B7B7B",
"$ 	c #777777",
"% 	c #747474",
"& 	c #707070",
"* 	c #6D6D6D",
"= 	c #696969",
"- 	c #666666",
"; 	c #626262",
"> 	c #5F5F5F",
", 	c #5B5B5B",
"' 	c #585858",
") 	c #545454",
"! 	c #505050",
"~ 	c #8E522A",
"{ 	c #FAAE5E",
"] 	c #C9C9C9",
"^ 	c #C6C1B6",
"/ 	c #4F4F4F",
"( 	c #FEEAAE",
"_ 	c #838383",
": 	c #FEFEFE",
"< 	c #D6D6D6",
"[ 	c #C3BEB0",
"} 	c #E29A56",
"| 	c #FE9632",
"1 	c #808080",
"2 	c #FCFCFC",
"3 	c #8E5E36",
"4 	c #FEDABA",
"5 	c #FE8A06",
"6 	c #92622E",
"7 	c #FE8206",
"8 	c #FE8602",
"9 	c #D1D1D1",
"0 	c #9A6636",
"a 	c #FECEA6",
"b 	c #FE8A02",
"c 	c #787878",
"d 	c #BA7A3E",
"e 	c #FA8606",
"f 	c #F68606",
"g 	c #D66A06",
"h 	c #767676",
"i 	c #C28246",
"j 	c #DA924E",
"k 	c #FA820A",
"l 	c #CA6206",
"m 	c #A24E06",
"n 	c #737373",
"o 	c #F6B696",
"p 	c #EEB276",
"q 	c #FE8606",
"r 	c #CE6602",
"s 	c #9E4A06",
"t 	c #0E0E0E",
"u 	c #D5D5D5",
"v 	c #FEDEBE",
"w 	c #FAE6D2",
"x 	c #EA9A6E",
"y 	c #6E6E6E",
"z 	c #D3D0D0",
"A 	c #FEF2E2",
"B 	c #F6C6AA",
"C 	c #EA8E5A",
"D 	c #F27E0E",
"E 	c #9A4606",
"F 	c #6B6B6B",
"G 	c #F9F5F1",
"H 	c #FEE6CA",
"I 	c #DA6E3E",
"J 	c #E26A2E",
"K 	c #C25E12",
"L 	c #686868",
"M 	c #FEFEFA",
"N 	c #FAFAF6",
"O 	c #F7F3EB",
"P 	c #FEEAD2",
"Q 	c #CA825E",
"R 	c #AE6232",
"S 	c #864A1E",
"T 	c #151515",
"U 	c #D6D6D3",
"V 	c #D3CFCF",
"W 	c #D2CEC8",
"X 	c #FEE2C6",
"Y 	c #F2B296",
"Z 	c #965A3A",
"` 	c #5A4E36",
" .	c #776A56",
"..	c #161616",
"+.	c #636363",
"@.	c #FAFAFA",
"#.	c #FAF6EE",
"$.	c #F7EFE7",
"%.	c #FED2B2",
"&.	c #CE8266",
"*.	c #2E2A22",
"=.	c #36322E",
"-.	c #908674",
";.	c #897960",
">.	c #171717",
",.	c #606060",
"'.	c #FAF6F6",
").	c #FAF2EA",
"!.	c #F4ECE4",
"~.	c #72664E",
"{.	c #B68A6A",
"].	c #C68662",
"^.	c #724E3A",
"/.	c #5A4A3E",
"(.	c #938978",
"_.	c #9D907D",
":.	c #AC9D85",
"<.	c #A48F6F",
"[.	c #5E5E5E",
"}.	c #F5F1E5",
"|.	c #CAAE82",
"1.	c #32261E",
"2.	c #422E26",
"3.	c #565252",
"4.	c #93897A",
"5.	c #9D9382",
"6.	c #AEA28D",
"7.	c #C0B29B",
"8.	c #D0BA9A",
"9.	c #B69E7A",
"0.	c #101010",
"a.	c #D3CCC5",
"b.	c #CFC9C2",
"c.	c #C9C6BF",
"d.	c #363232",
"e.	c #7E766B",
"f.	c #908675",
"g.	c #A39882",
"h.	c #B2A08A",
"i.	c #B9A688",
"j.	c #BFAB8D",
"k.	c #BDA27A",
"l.	c #0D0D0D",
"m.	c #F6F2E6",
"n.	c #F6EEE2",
"o.	c #EFE3D3",
"p.	c #524636",
"q.	c #998E7F",
"r.	c #877C6E",
"s.	c #AFA38E",
"t.	c #C8B79F",
"u.	c #DBCBB1",
"v.	c #E7CFB3",
"w.	c #E5CDA9",
"x.	c #E2CAA2",
"y.	c #BDA177",
"z.	c #090909",
"A.	c #565656",
"B.	c #F2EAE2",
"C.	c #F2EADA",
"D.	c #DACFBD",
"E.	c #BBAE9C",
"F.	c #B5A593",
"G.	c #A49985",
"H.	c #D3C1A8",
"I.	c #E0C9AE",
"J.	c #E4CCA8",
"K.	c #E6CEAA",
"L.	c #DEC6AA",
"M.	c #BD9F74",
"N.	c #040404",
"O.	c #535353",
"P.	c #C5BFB1",
"Q.	c #C4BCAC",
"R.	c #C3B9A6",
"S.	c #BCB19C",
"T.	c #B2A690",
"U.	c #B2A38B",
"V.	c #B8A88C",
"W.	c #BDAA8D",
"X.	c #BEAA89",
"Y.	c #BFA885",
"Z.	c #BEA680",
"`.	c #BEA37B",
" +	c #BDA176",
".+	c #BC9D70",
"++	c #000000",
"    . . + @ # $ % & * = - ; > , ' ) !   ~ { ",
"    . ] ] ] ] ] ] ] ] ] ] ] ] ] ] ^ / ~ { ( ",
"    _ ] : : : : : : < : : : : : : [ ~ } ( | ",
"    1 ] : : : : : : < : : : : : 2 3 } 4 | 5 ",
"    @ ] : : : : : : < : : : : 2 6 } 4 | 7 8 ",
"    # ] < < < < < < < < < < 9 0 } a | 7 8 b ",
"    c ] : : : : : : < : : 2 d } a | e 8 f g ",
"    h ] : : : : : : < : 2 i j a | k 8 f l m ",
"    n ] : : : : : : < 2 o p a | 8 q f r s t ",
"    & ] < < < < < < u o v w x k 8 f l s t   ",
"    y ] : : : : : : z a A B C D k r E t     ",
"    F ] : : : : : G o H 4 x I J K E t       ",
"    L ] : : : M N O a P o Q R ~ S t T       ",
"    - ] < < U V W o X Y Q Z ~ ` t  ...      ",
"    +.] : @.N #.$.%.B &.Z ` *.=.-.;.>.      ",
"    ,.] M '.).!.~.{.].^./.=.(._.:.<.T       ",
"    [.] N #.}.|.~.1.2.3.4.5.6.7.8.9.0.      ",
"    , ] a.b.c.~.*.d.|.e.f.g.h.i.j.k.l.      ",
"    ' ] m.n.o.p.|.q.r.s.t.u.v.w.x.y.z.      ",
"    A.] B.C.o.D.E.F.G.H.I.J.K.x.L.M.N.      ",
"    O.^ P.Q.R.S.T.U.V.W.X.Y.Z.`. +.+++      ",
"    ++++++++++++++++++++++++++++++++++      "};
