/* XPM */
static char * edit_desel_xpm[] = {
"22 22 54 1",
" 	c None",
".	c #868686",
"+	c #828282",
"@	c #7E7E7E",
"#	c #7B7B7B",
"$	c #777777",
"%	c #747474",
"&	c #707070",
"*	c #6D6D6D",
"=	c #696969",
"-	c #666666",
";	c #626262",
">	c #5F5F5F",
",	c #5B5B5B",
"'	c #585858",
")	c #545454",
"!	c #505050",
"~	c #8E522A",
"{	c #FAAE5E",
"]	c #FFFFFF",
"^	c #000000",
"/	c #FEEAAE",
"(	c #FFFF00",
"_	c #FE9632",
":	c #FEFEFE",
"<	c #FF0000",
"[	c #FE8A06",
"}	c #FE0000",
"|	c #FE8602",
"1	c #00FFFF",
"2	c #FE8A02",
"3	c #030000",
"4	c #FFFF9B",
"5	c #D66A06",
"6	c #FFC506",
"7	c #A24E06",
"8	c #FFFF38",
"9	c #0E0E0E",
"0	c #000072",
"a	c #0000FF",
"b	c #FFFF69",
"c	c #FFFF06",
"d	c #FFE100",
"e	c #FEFEFF",
"f	c #870000",
"g	c #FF07FF",
"h	c #99005E",
"i	c #1A0000",
"j	c #0052FF",
"k	c #E2E2E2",
"l	c #FFB500",
"m	c #D50BFF",
"n	c #000005",
"o	c #65FFFF",
"  ..+@#$%&*=-;>,')! ~{",
"  ]]]]]]]]]]]]]]]]^^]/",
"  ]]]]]]]]^]]]]]]]^(]_",
"  ]]]::::]^]::]]]^<]<[",
"  ]]]]]]]]^]]]]]^<]<}|",
"  ]]^^^^^^^^^^1^<]<<(2",
"  ]]]]]]]]^]]]^<]<3(45",
"  ]]]::::]^]]^^]<3(467",
"  ]]]]]]]]^]<<]<<(8((9",
"  ]]^^^^^^0<]]a<(bc(a ",
"  ]]]]]]]]a<]]^d(((a  ",
"  ]]]:e]]]f]]<<g((a   ",
"  ]]]]]]]]<]]hij(^a   ",
"  k]^^^^^<]]<^l1^]^   ",
"  ^]]]]]]]]<<^^^]]^   ",
"  ^]]m]]^(]^^^]]]]^   ",
"  ^]]]](^^^^]]]]]]^   ",
"  ^]^^]^^^]^^^^^n]^   ",
"  ^]]]]^]]^o]]]]]]^   ",
"  ^]]]]]]]^]]]]]]]^   ",
"  ]]]]]]]]]]]]]]]]^   ",
"  ^^^^^^^^^^^^^^^^^   "};
