/* XPM */
static char * read_pic_xpm[] = {
"32 32 15 1",
" 	c None",
".	c #2F2F2F",
"+	c #9F9FA3",
"@	c #575757",
"#	c #7F7F7F",
"$	c #C0C0FF",
"%	c #DBDBDB",
"&	c #000000",
"*	c #8080FF",
"=	c #BFBFBF",
"-	c #000080",
";	c #FFFFFF",
">	c #FFC0C0",
",	c #C00000",
"'	c #800000",
"                                ",
"                                ",
"                ..              ",
"               .++@.#..         ",
"        $$    .#%%. ..@&        ",
"       $**$   .#%.+..@&#@       ",
"      $****$..@..+..@&@..#      ",
"     $******$+@.+....+..=..     ",
"    $********$.+......++....    ",
"    -*********$............#&   ",
"    &-*********$..........+&&   ",
"     &-*********$........+&&&&  ",
"      &-*********$......+&&&+&  ",
"      .&-*******;;>...&+&&&%+@  ",
"    ..@.&-*****;;,,>.&+&&&%%++@ ",
"   .++@.#&-***;;,,,,>#&&&&&%#@@ ",
"  .#%%.#.&&-*;;,,,,,,>&&+& .@@  ",
"  .#%.#&&.&&-;,,,,,,,,>%+@ +.#  ",
"  @..#&&&&&&&',,,,,,,,,>++@ .   ",
"  . &&#&&&&&&&',,,,,,,,,>@@ .   ",
"  . &&&#&&&&&&&',,,,,,,>>>+     ",
"    &&&&#&&&&&&&',,,,,>>>>      ",
"     &&&&#&&&&#&&',,,>>>>&      ",
"     &&&&&#&&#&&&&',>>>>&       ",
"      &&&&&##&&&+&&'>>>&        ",
"       &&&&.@&&%+@ &'>&         ",
"        &&&&.&%%++@ .           ",
"         &&&.&&%#@@ .           ",
"          &.&. .@@+             ",
"               +.#              ",
"                .               ",
"                .               "};
