/* XPM */
static char * erase_pic_desel_xpm[] = {
"32 32 9 1",
" 	c None",
".	c #000000",
"+	c #FFFFFF",
"@	c #DCDCDC",
"#	c #8D8D8D",
"$	c #2F2F2F",
"%	c #6E6E6E",
"&	c #393939",
"*	c #0D0D0D",
"                                ",
"                                ",
"                ..              ",
"               .+++++++         ",
"        ++    ++++. ..+.        ",
"       +..+   .++.+.@+.++       ",
"      ++..++..+..+..+.+..+      ",
"     ++.##..++..+....+..+.+     ",
"    ++.####..+.+..$$..++...+    ",
"    .++#####..+..$$$$......+.   ",
"    ..++#####..+..$$$$$$..+..   ",
"     ..++#####..+..$$$$..+....  ",
"      ..++#####..+..$+..+...+.  ",
"      +..++###..+++....+...++.  ",
"    ..+...++#..++..+..+...++%++ ",
"   .++..+..++.++....++.....+..+ ",
"  ++++.++...+++..&&..+..+. ..+  ",
"  .++.+..+...+..&&&&..+++. +.+  ",
"  +..+.........+&&&&&..++++ .   ",
"  + ..+.......+++&&&&&..+.* +   ",
"  + ...+.......+++&&&..++++     ",
"    ....+.......+++&..++++      ",
"     ....+....+..++..++++.      ",
"     .....+..+....+.++++.       ",
"      .....++...+...+++.        ",
"       .....+..++. ..+.         ",
"        ....+.++%++ +           ",
"         ...+..+..+ +           ",
"          .+.+ ...+             ",
"               +.+              ",
"                .               ",
"                $               "};
