/* XPM */
static char * filesave_desel_xpm[] = {
"32 32 29 1",
" 	c None",
".	c #000000",
"+	c #FFFFFF",
"@	c #EAEAEA",
"#	c #B3B3B3",
"$	c #818181",
"%	c #BCBCBC",
"&	c #ABABAB",
"*	c #A6A6A6",
"=	c #A1A1A1",
"-	c #909090",
";	c #838383",
">	c #595959",
",	c #9F9F9F",
"'	c #858585",
")	c #747474",
"!	c #6F6F6F",
"~	c #686868",
"{	c #626262",
"]	c #383838",
"^	c #090909",
"/	c #474747",
"(	c #535353",
"_	c #F9F9F9",
":	c #9C9C9C",
"<	c #8A8A8A",
"[	c #7F7F7F",
"}	c #7B7B7B",
"|	c #777777",
"         ...                    ",
"        .+++...                 ",
"        .++.+++...              ",
"        .++.+..+++...           ",
"       .+++.+++...+++...        ",
"       .++.+++++++...+++...     ",
"       .++.++++++++++...+++...  ",
"      .+++.+++++++++++++..+.++. ",
"      .++.++++++++++++++++.++.+.",
"      .++.++++++++++++++++.+.++.",
"     .+++.++++++++++++++++.+.+. ",
"     .++.++++++++++++++++.+..+. ",
"     .++.++++++++++++++++.+.++. ",
"    .++++...+++++++++++++.+.+.  ",
"    .+@#++++...+++++++++.$..+.  ",
"    .+%&*=-++++...++++++.+.++.  ",
"   .+++++++;>,++++...+++.+.+.   ",
"   .+++...++++')!+++~......+.   ",
"   .++.+++...++++{].+++++.++.   ",
"  .+++.+.++++...++++^/(((.+.    ",
"  .+++.+....++++...++++(..+.    ",
"  .++.++++++++.++.+...+(.++.    ",
" .+++.+._______+.++++.+(.+.     ",
" .+++.+.:::::::+.+;++.+..+.     ",
"  ...++++<<<<<++.+[+.++.++.     ",
"     ...++++..+.++}+.+(.+.      ",
"        ...++++.+|++.+..+.      ",
"           ...+.+++.++.++.      ",
"              ...++.+(.+.       ",
"                 ...++++.       ",
"                    .....       ",
"                                "};
