/* XPM */
static char * fileopen_desel_xpm[] = {
"32 32 72 1",
" 	c None",
".	c #000000",
"+	c #FFFFFF",
"@	c #D5D5D5",
"#	c #929292",
"$	c #9E9E9E",
"%	c #373737",
"&	c #818181",
"*	c #A6A6A6",
"=	c #363636",
"-	c #ACACAC",
";	c #2E2E2E",
">	c #E1E1E1",
",	c #B7B7B7",
"'	c #888888",
")	c #181818",
"!	c #C0C0C0",
"~	c #636363",
"{	c #B3B3B3",
"]	c #171717",
"^	c #8D8D8D",
"/	c #EAEAEA",
"(	c #A9A9A9",
"_	c #2A2A2A",
":	c #040404",
"<	c #C8C8C8",
"[	c #EEEEEE",
"}	c #B0B0B0",
"|	c #CFCFCF",
"1	c #B5B5B5",
"2	c #BBBBBB",
"3	c #FDFDFD",
"4	c #F3F3F3",
"5	c #C4C4C4",
"6	c #E4E4E4",
"7	c #949494",
"8	c #CCCCCC",
"9	c #E8E8E8",
"0	c #D8D8D8",
"a	c #A3A3A3",
"b	c #959595",
"c	c #7D7D7D",
"d	c #B6B6B6",
"e	c #979797",
"f	c #D6D6D6",
"g	c #8E8E8E",
"h	c #F0F0F0",
"i	c #F4F4F4",
"j	c #8B8B8B",
"k	c #EBEBEB",
"l	c #E5E5E5",
"m	c #A0A0A0",
"n	c #E9E9E9",
"o	c #BDBDBD",
"p	c #D1D1D1",
"q	c #BFBFBF",
"r	c #BABABA",
"s	c #E7E7E7",
"t	c #969696",
"u	c #C3C3C3",
"v	c #989898",
"w	c #4D4D4D",
"x	c #585858",
"y	c #909090",
"z	c #F6F6F6",
"A	c #AFAFAF",
"B	c #CACACA",
"C	c #FAFAFA",
"D	c #DADADA",
"E	c #DEDEDE",
"F	c #FCFCFC",
"G	c #505050",
"                                ",
"             ........     .     ",
"           ............  ..     ",
"         .....    .........     ",
"        ...          ......     ",
"       ..             .....     ",
"                     ......     ",
"                    .......     ",
"   ......                       ",
"  .++++++.                      ",
" .++++++++.                     ",
".+++++@++++.............        ",
".+++++++++++++++++++++++.       ",
".++++.++++++++++++++++++.       ",
".++++#+.........................",
".++++++.+++++++++++++++++++++++.",
".+++$+..+.....................+.",
".+++++.+++%&++*+=-+++++++++;>+. ",
".++,+..+.+++++++++'+)!~{]^+/++. ",
".++++.++++++(++++++++++++++++.  ",
".+++..+._+++:+++<+[+}|[12++++.  ",
".+++.++.3+++++4+56-+7++8/<++.   ",
".++..+.9++++|0a5+b+cde$f++++.   ",
".++.++.+++ghc+i6b+j#+klm+++.    ",
".+..+.+++++n++o-+jpqrst++++.    ",
".+.++.+u+vw+xk|+c#q+y}+)++.     ",
".+.+.+zAB+++++C++++++z++++.     ",
"..++.++++D+++++++++E+++.+.      ",
"..+.+++++++F++++++++++G++.      ",
".+++++++++++++++++++++++.       ",
".........................       ",
"                                "};
