/* XPM */
static char * filenew_desel_xpm[] = {
"22 22 48 1",
" 	c None",
".	c #FFFFFF",
"+	c #000000",
"@	c #FFFF00",
"#	c #CBFFFF",
"$	c #E3ECFF",
"%	c #E1FFFF",
"&	c #FFEFE7",
"*	c #F1FFFF",
"=	c #B1EBCE",
"-	c #FAFFED",
";	c #D3A4C1",
">	c #9FC595",
",	c #E9F2E5",
"'	c #FFB4E0",
")	c #DFEEFF",
"!	c #FFF6EB",
"~	c #F5FFB3",
"{	c #FFC8FF",
"]	c #232300",
"^	c #950000",
"/	c #DE8700",
"(	c #B71300",
"_	c #843400",
":	c #CD5505",
"<	c #FFFFD8",
"[	c #D16CAC",
"}	c #FFFFF0",
"|	c #F3A2B7",
"1	c #D8C37F",
"2	c #B1F1CF",
"3	c #F6FFF6",
"4	c #CFCBCA",
"5	c #E5FFE2",
"6	c #CAFFB6",
"7	c #FFECFA",
"8	c #E8FDFF",
"9	c #C1A16B",
"0	c #FDDBC8",
"a	c #CA7383",
"b	c #FFA1C7",
"c	c #ECCE9B",
"d	c #CDFFFF",
"e	c #FF7789",
"f	c #D6FFE6",
"g	c #FFD2A1",
"h	c #F8FFE6",
"i	c #D19894",
"                      ",
"      .+++++++++++    ",
"      +.........+.+   ",
"      +.........+..+  ",
"      +.........+...+ ",
"      +.........+....+",
"      +.........++++++",
"      +..............+",
"  +  +@+..+.......#..+",
" +.+ +@+.+@+....$....+",
"  +@+.@.+@+.....%&...+",
"   +@+.+@+...*=-;>,..+",
" ++.+...+.++..')!~{..+",
"].@@.....@@@+.^/(_:..+",
" ++.+...+.++.........+",
"   +@+.+@+...<[}|12..+",
"  +@+.@.+@+..34.567..+",
" +.+ +@+.+@+.890abc..+",
"  +  +@+..+..defghi..+",
"      +..............+",
"      +..............+",
"      ++++++++++++++++"};
