/* XPM */
static char * mini_programmer_xpm[] = {
"16 16 108 2",
"  	c None",
". 	c #353535",
"+ 	c #312F2C",
"@ 	c #2A2A2A",
"# 	c #FFE97A",
"$ 	c #3E3C3B",
"% 	c #5E5B52",
"& 	c #5C5951",
"* 	c #595959",
"= 	c #383838",
"- 	c #FFE779",
"; 	c #212320",
"> 	c #606060",
", 	c #5B584F",
"' 	c #7B786F",
") 	c #7C7971",
"! 	c #797873",
"~ 	c #787878",
"{ 	c #B0AA86",
"] 	c #1A1A1A",
"^ 	c #747474",
"/ 	c #76736C",
"( 	c #959289",
"_ 	c #939088",
": 	c #929292",
"< 	c #747370",
"[ 	c #82817C",
"} 	c #A29F96",
"| 	c #A3A098",
"1 	c #858279",
"2 	c #535048",
"3 	c #A09D96",
"4 	c #B2AFA6",
"5 	c #B3B0A8",
"6 	c #B5B2A9",
"7 	c #716E65",
"8 	c #3B3831",
"9 	c #756E4C",
"0 	c #1D1D1D",
"a 	c #ACA9A0",
"b 	c #C9C6BD",
"c 	c #C2BFB6",
"d 	c #C3C0B8",
"e 	c #BDBAB2",
"f 	c #A9A69D",
"g 	c #7F7C73",
"h 	c #4F4D44",
"i 	c #34322C",
"j 	c #DAC66B",
"k 	c #E7D78C",
"l 	c #807958",
"m 	c #4E4C49",
"n 	c #9F9C93",
"o 	c #D4D2C9",
"p 	c #D2CFC6",
"q 	c #D3D0C7",
"r 	c #86837B",
"s 	c #AFACA3",
"t 	c #5B5A55",
"u 	c #62634D",
"v 	c #E6D68B",
"w 	c #968D62",
"x 	c #89825C",
"y 	c #838078",
"z 	c #E0DDD4",
"A 	c #DCD9D0",
"B 	c #615E55",
"C 	c #4D4A43",
"D 	c #737168",
"E 	c #8B887D",
"F 	c #757B6B",
"G 	c #25241F",
"H 	c #4A4939",
"I 	c #4C4941",
"J 	c #66635B",
"K 	c #636158",
"L 	c #CDCAC2",
"M 	c #A7A398",
"N 	c #96938B",
"O 	c #4B4B4A",
"P 	c #46443C",
"Q 	c #79766C",
"R 	c #636058",
"S 	c #515151",
"T 	c #36332D",
"U 	c #B7B3A8",
"V 	c #AEAEAB",
"W 	c #4E4E4E",
"X 	c #7C796F",
"Y 	c #ADAAA2",
"Z 	c #323231",
"` 	c #918E89",
" .	c #A5A299",
"..	c #908D85",
"+.	c #4A4740",
"@.	c #A4A198",
"#.	c #89867E",
"$.	c #565550",
"%.	c #979796",
"&.	c #979389",
"*.	c #807E75",
"=.	c #4E4C44",
"-.	c #423F39",
";.	c #777673",
">.	c #B6B3AA",
",.	c #49463E",
"'.	c #666666",
").	c #706D65",
"                . + @ #         ",
"              $ % & * = - ;     ",
"          > , ' ) ' ' ! ~ { ]   ",
"      ^ / ( ( _ ( ( ( ( ( : <   ",
"    [ } } } | } } | | } } } 1 2 ",
"  3 4 4 4 5 4 4 4 4 4 4 4 6 7 8 ",
"9 0 a b c c d c c c e f | g h i ",
"j k l m n o p p q p r r a s t   ",
"  u v w x y | z A d B C D a E   ",
"    F G H I J K L M N O P Q 5 R ",
"          S T I U V     W X Y , ",
"              Z         `  ...+.",
"                      @.Y #.h $.",
"                    %.&.*.=.-.  ",
"                    ;.>.#.,.    ",
"                    '.X 4 ).    "};
