/* XPM */
static char * read_pic_desel_xpm[] = {
"32 32 11 1",
" 	c None",
".	c #FFFFFF",
"+	c #000000",
"@	c #2F2F2F",
"#	c #0A0A0A",
"$	c #6E6E6E",
"%	c #737373",
"&	c #313131",
"*	c #272727",
"=	c #121212",
"-	c #0C0C0C",
"                                ",
"        .++++++.                ",
"      ++++....++++              ",
"     +...........++....         ",
"    +...      +....+++.+        ",
"   +..        +..+.++.+..       ",
"  +..       ++.++.+.++.++.      ",
"  +..      +..++.++..+++.+.     ",
" .+.      ....+.+++..+..+++.    ",
" ++.      +..+.+++++.++++++.+   ",
" +..    ++.++.++@+++..+.++.++   ",
" +..   +..++.++@@#++..+@+.++++  ",
" +..  ....+.++..@.++..++.+++.+  ",
" +..  +..+.++.+...++..+.+++..+  ",
" ++.++.++.++.+.+.+.+.+++++..$.. ",
" .+...++.++.+.+.+.+..+.++++.++. ",
"  +...+.++.+.+.+.++..+++.+ ++.  ",
"  ++.+.++.+++.+++++.+.+..+ .+.  ",
"  .+..++++++++++++.+++..$.. +   ",
"  . +....++++++...++..+.%+. .   ",
"  . +++..........+++...++..     ",
"    ++++++....+++.+..+..+.      ",
"     +++.++++++.++.++&+..+      ",
"     +++++.++.+++++.+*++..+     ",
"      +++++..+++.+ +.++++..+    ",
"       +++++.++..+ .+.+.++..+   ",
"        ++++.+..$.. +  +.++..+  ",
"         +++.++.++. .   +.++..+ ",
"          +.+. +++.      +.++..+",
"               .+.        +.++.=",
"                +          +...-",
"                @           +## "};
