/* XPM */
static char * read_pic_xpm[] = {
"32 32 180 2",
"  	c None",
". 	c #878787",
"+ 	c #000000",
"@ 	c #2F2F2F",
"# 	c #5D5D5D",
"$ 	c #818181",
"% 	c #9A9A9A",
"& 	c #8E8E8E",
"* 	c #666666",
"= 	c #131313",
"- 	c #545552",
"; 	c #9FA0A0",
"> 	c #CBD7D7",
", 	c #CEDADE",
"' 	c #D1E1E5",
") 	c #CBD8D9",
"! 	c #C9D5D5",
"~ 	c #A9A9A9",
"{ 	c #4B4B4A",
"] 	c #7F7F7F",
"^ 	c #B2B8B9",
"/ 	c #D8E4E4",
"( 	c #575E5F",
"_ 	c #A7B8B9",
": 	c #E1F2F2",
"< 	c #D4DADA",
"[ 	c #797979",
"} 	c #575757",
"| 	c #B4BAB9",
"1 	c #333535",
"2 	c #838788",
"3 	c #D4DFE1",
"4 	c #7D8B8D",
"5 	c #CDD6D8",
"6 	c #B3B7B8",
"7 	c #303030",
"8 	c #575858",
"9 	c #303131",
"0 	c #343738",
"a 	c #A4ABAF",
"b 	c #7F8D8F",
"c 	c #E2EFF0",
"d 	c #30302F",
"e 	c #D9E5E4",
"f 	c #9F9FA3",
"g 	c #2F3030",
"h 	c #9E9FA3",
"i 	c #343737",
"j 	c #4F5C5E",
"k 	c #B0C3C3",
"l 	c #C1C1C1",
"m 	c #BFBFBF",
"n 	c #DBDBDB",
"o 	c #DADBDB",
"p 	c #373E3E",
"q 	c #768D90",
"r 	c #D6E2E4",
"s 	c #080808",
"t 	c #858585",
"u 	c #4C4C4B",
"v 	c #C8D0D0",
"w 	c #313434",
"x 	c #4B5B5E",
"y 	c #A2B2B6",
"z 	c #505050",
"A 	c #0C0C0C",
"B 	c #D5E2E5",
"C 	c #303132",
"D 	c #3E494A",
"E 	c #7F979B",
"F 	c #090909",
"G 	c #E1E9ED",
"H 	c #2F3131",
"I 	c #3D4546",
"J 	c #7F9B9D",
"K 	c #C3C3C3",
"L 	c #0A0A0A",
"M 	c #3C4546",
"N 	c #D3D3D3",
"O 	c #D8E4E5",
"P 	c #010303",
"Q 	c #3B4749",
"R 	c #78979B",
"S 	c #A6A6A6",
"T 	c #C6D4D4",
"U 	c #575F60",
"V 	c #2F2F30",
"W 	c #000102",
"X 	c #303334",
"Y 	c #26373A",
"Z 	c #9CB5B9",
"` 	c #161616",
" .	c #B3B8B8",
"..	c #B7C5C9",
"+.	c #A0A4A9",
"@.	c #575859",
"#.	c #000101",
"$.	c #2F3031",
"%.	c #0B1213",
"&.	c #6E898C",
"*.	c #D7E3E5",
"=.	c #848484",
"-.	c #D2E5E8",
";.	c #D3DFE0",
">.	c #7E8080",
",.	c #04090A",
"'.	c #465A5C",
").	c #9FB6B6",
"!.	c #929292",
"~.	c #B5BABC",
"{.	c #7E8B8D",
"].	c #899091",
"^.	c #070A0B",
"/.	c #010202",
"(.	c #040909",
"_.	c #3E4A4C",
":.	c #5E7578",
"<.	c #E6F4F6",
"[.	c #2E2E2D",
"}.	c #AAAFB0",
"|.	c #667375",
"1.	c #2B3739",
"2.	c #0D1314",
"3.	c #040707",
"4.	c #020304",
"5.	c #010203",
"6.	c #030606",
"7.	c #0A1213",
"8.	c #223638",
"9.	c #5C7375",
"0.	c #D3D9DB",
"a.	c #585858",
"b.	c #B4B9BA",
"c.	c #9DB2B2",
"d.	c #5C7377",
"e.	c #283739",
"f.	c #162021",
"g.	c #111B1C",
"h.	c #0F1A1B",
"i.	c #111E1F",
"j.	c #233537",
"k.	c #566F73",
"l.	c #9CB6B6",
"m.	c #E3EEEE",
"n.	c #7F7F80",
"o.	c #0CFDFA",
"p.	c #373736",
"q.	c #898989",
"r.	c #AEB7B9",
"s.	c #93A4A4",
"t.	c #6B8185",
"u.	c #658287",
"v.	c #608287",
"w.	c #5E7E83",
"x.	c #91A5AA",
"y.	c #D9E4E6",
"z.	c #8B8B8B",
"A.	c #0AE1DF",
"B.	c #E0E0E0",
"C.	c #040404",
"D.	c #515151",
"E.	c #989898",
"F.	c #C2C2C2",
"G.	c #060606",
"H.	c #06AFB1",
"I.	c #535352",
"J.	c #8C8C8C",
"K.	c #E8E8E8",
"L.	c #010101",
"M.	c #333333",
"N.	c #404041",
"O.	c #555554",
"P.	c #3D3D3C",
"Q.	c #555653",
"R.	c #343434",
"S.	c #424243",
"T.	c #121213",
"U.	c #4A4A4B",
"V.	c #0D0D0C",
"W.	c #0A0A0B",
"                                                                ",
"                . + + + + + + .                                 ",
"            + + @ # $ % % & * = + +                             ",
"          + - $ ; > , ' ' , ) ! ~ { + @ ] @ @                   ",
"        + - ^ /             ( _ : < [ + @ @ } +                 ",
"      + - |                 1 2 3 4 5 # + } + ] }               ",
"    + - 6               7 7 8 9 0 a b c d + } @ @ ]             ",
"    + $ e             @ f f 8 g h i j k l + @ @ m @ @           ",
"  . @ ;             @ ] n o @ h g 9 p q r s t f @ @ @ @         ",
"  + u v             @ ] n @ ] @ g g w x y z A @ @ @ @ ] +       ",
"  + $ B         @ @ } @ @ f @ @ @ g C D E % F @ @ @ f + +       ",
"  + % G       @ f f } @ ] @ @ @ @ g H I J K L @ @ f + + + +     ",
"  + % G     7 ] n n @ f @ @ @ @ @ g H M J N L @ f + + + f +     ",
"  + & O     7 ] o @ ] @ @ @ + @ @ @ P Q R S L f + + + n f }     ",
"  + { T U 1 8 g @ ] @ + @ + @ + V W X Y Z } F + + + n n f f }   ",
"  . `  ...+.@.g ] @ + @ + @ + @ #.$.%.&.*.+ =.+ + + + n ] } }   ",
"    + & -.;.0 >.g #.@ + @ + V #.g ,.'.).!.+ + + f +   @ } }     ",
"    + { ~.{.].^.P g #.#.#.@ #./.(._.:.<.[.=.+ n f }   f @ ]     ",
"    } + [ }.|.1.2.3.4.5./.P 6.7.8.9.0.a.+ + n n f f }   @       ",
"    @   + [ b.c.d.e.f.g.h.i.j.k.l.m.a.+ n.o.+ n ] } }   @       ",
"    @   + + p.q.r.s.t.u.v.w.x.y.z.[.+ { A.A.B.+ } } f           ",
"        + + + + C.D.E.F.N S } + + =.G.H.H.I.J.K.L.]             ",
"          + + + t + + + + + + =.+ + n + M.{ I.J.K.+             ",
"          + + + + + ] + + ] + + + + + n + M.N.O.J.K.+           ",
"            + + + + + ] ] + + + f +   @ } + M.N.I.J.K.+         ",
"              + + + + @ } + + n f }   f @ ] + M.N.I.J.K.+       ",
"                + + + + @ + n n f f }   @     + M.P.Q.J.K.+     ",
"                  + + + @ + + n ] } }   @       + R.P.Q.J.K.+   ",
"                    + @ + @   @ } } f             + R.S.Q.J.B.+ ",
"                              f @ ]                 + R.S.Q.J.T.",
"                                @                     + R.S.U.V.",
"                                @                       + W.W.  "};
