/* XPM */
static char * test_pic_desel_xpm[] = {
"32 32 26 1",
" 	c None",
".	c #000000",
"+	c #FFFFFF",
"@	c #00007D",
"#	c #D1D1D1",
"$	c #B7B792",
"%	c #86866D",
"&	c #FFFFDC",
"*	c #7D7D96",
"=	c #2A2A2A",
"-	c #060606",
";	c #0101AF",
">	c #020202",
",	c #B8B8EA",
"'	c #CECE1F",
")	c #7D7D63",
"!	c #4747C4",
"~	c #5D5D5D",
"{	c #1B1B1B",
"]	c #FFFF7D",
"^	c #171700",
"/	c #141400",
"(	c #F4F4C3",
"_	c #303000",
":	c #4F4F1E",
"<	c #EDEDBB",
"                                ",
"          ..                    ",
"         .++.   ++              ",
"    ..   .++.  +..+.+.+         ",
"   .++. ..+.....++.+..+.        ",
"   .+++.++++++.+++...+.++       ",
"    .++++..@#+++..$%+.+..+      ",
"     .+&++++++*+..+..+..+.+     ",
"    .+++++..+++++.++..++...+    ",
"  ...+.++...++.++..........+.   ",
" .++++.+..+..+.+++++.+=-..+..   ",
" .++.+;+..+..+.+++++.+>..+....  ",
"  ...+,+++..++.++....+..+...+.  ",
"    .++++++++.'++.+++..+...++.  ",
"    ..+)!....~++..+{..+...+++++ ",
"   +.++++++++++++....+.....++.+ ",
"  +.++..+++++].+++..+...+. ..+  ",
"  +.++.....+....++.+...++. +.+  ",
"  +^......++./(...+...+++++ _   ",
"  + ..+...++.:...+.....++.+ +   ",
"  + ...+........+...+. ...+     ",
"    ....+......+...++. +.+      ",
"     ....+....+...+++++ _       ",
"     .....+..+.....++.+ +       ",
"      .....++...+. ...+         ",
"       .....+..++. +.+          ",
"        ....+.+++++ _           ",
"         ...+..++.+ +           ",
"          .+.+ ..<+             ",
"               +.+              ",
"                .               ",
"                .               "};
