/* XPM */
static char *test_pic_reset[]={
"32 32 176 2",
".m c None",
".l c #000000",
".u c #000002",
"aM c #010101",
"aF c #020202",
"aG c #040404",
"aH c #050505",
"aC c #060606",
"#I c #098100",
"ah c #222222",
"#8 c #252525",
"#3 c #262626",
"#4 c #272727",
"a. c #27272b",
"#U c #292929",
"#x c #2a2a2a",
"#i c #2b2b2b",
"#j c #2d2d2d",
"#k c #2e2e2e",
".J c #2f2f2f",
".A c #303030",
"#h c #373737",
"#g c #3d3d3d",
".B c #4d4f50",
"#s c #4e4e4e",
"#P c #4f4f4f",
"#E c #515150",
".H c #585858",
"aa c #5b5b4e",
"#f c #5b5c4e",
".q c #5f6132",
"#Y c #656561",
"#r c #666662",
"#e c #686856",
".w c #69695e",
".C c #6f6d74",
".r c #747256",
".Q c #75724d",
".z c #767478",
"ak c #787a4b",
".L c #797980",
".8 c #7a784b",
".p c #7a7a4d",
"a# c #7c7c7b",
".x c #7e7e7b",
"aS c #7f7f7f",
".Z c #808080",
"ac c #810000",
".7 c #81815e",
"aP c #838383",
"#T c #848484",
"aN c #858585",
".t c #85858b",
"#D c #86867e",
"#L c #868686",
".y c #86868c",
".D c #86888c",
".k c #88868c",
".Y c #888863",
"#5 c #88887f",
"#V c #88888c",
".S c #8a8c8e",
"#M c #8c8a8e",
"aL c #8c8c8c",
".j c #8c8c8e",
".9 c #8e8e64",
"aT c #8e8e8e",
"#z c #8f8f95",
"#o c #909091",
"#q c #929288",
"#O c #939388",
"#N c #939392",
".3 c #939492",
".T c #949392",
".i c #949492",
"av c #969696",
"aj c #979589",
"ag c #979797",
".s c #979889",
"aB c #9c9c80",
".U c #9c9c97",
".4 c #9c9e97",
"#w c #9d9d9d",
".E c #9d9e9b",
"#c c #9e9c97",
".h c #9e9e97",
"#n c #9e9e9c",
"aD c #9e9e9e",
"#l c #a0a0a4",
"ar c #a1a1a1",
".F c #a2a09a",
"#X c #a2a396",
"## c #a3a29b",
"#d c #a3a395",
"#6 c #a3a3a3",
".1 c #a6a693",
".R c #a6a6ad",
".v c #a7a785",
".5 c #a7a79c",
".V c #a7a99d",
"#W c #a9a79c",
".g c #a9a99d",
".o c #aba785",
"#A c #acacb4",
"au c #adad9b",
"as c #adadad",
"ai c #b1b1b1",
".M c #b2b2a8",
".6 c #b3b4a4",
".W c #b4b3a4",
".f c #b4b4a4",
"#. c #b4b4a8",
"aR c #b5b5b5",
"#9 c #b6b6b6",
"#2 c #bababa",
"aQ c #bbbbbb",
".P c #bdbdbd",
"aO c #bebebe",
".X c #bfbfad",
".e c #bfbfae",
".I c #bfbfbf",
".0 c #c0c0ae",
"#m c #c0c0c0",
"#v c #c1c1c1",
"#y c #c1c1c3",
"aK c #c2c2c2",
"#t c #c4c4c4",
".O c #c5c5b1",
"ab c #c5c5c5",
"aI c #c7c7c7",
"#K c #c8c8c8",
"aJ c #c9c9c9",
".d c #cacab8",
"af c #cbcbcb",
"#7 c #cdcdcd",
"#Z c #d0d0d0",
"#F c #d1d1d1",
".K c #d2d2c1",
"#u c #d2d2d2",
"al c #d3d3d3",
".c c #d4d2c4",
"#S c #d4d4d4",
"aA c #d8d8d8",
"aE c #d9d9d9",
".G c #dadada",
"#1 c #dbdbdb",
".b c #dcdcce",
"aq c #dedede",
"at c #e1e1e1",
"az c #e2e2e2",
"ae c #e3e3e3",
"#Q c #e6e6e6",
".2 c #e6e6ed",
".a c #e7e6db",
".n c #e7e6dc",
"#0 c #e7e7e7",
".N c #e9e9d4",
"ap c #e9e9e9",
"#b c #eaeae9",
"ay c #ebebeb",
"#p c #ecece7",
"#C c #ecece9",
"#J c #ededed",
"ad c #eeeeee",
".# c #f1f1eb",
"#R c #f1f1f1",
"ao c #f2f2f2",
"aw c #f6f6f6",
"an c #f8f8f8",
"ax c #f9f9f9",
"#B c #f9f9ff",
"Qt c #f9fbf9",
"#H c #fbfbfb",
"am c #fdfdfd",
"#G c #fefefe",
"#a c #ffffff",
"Qt.#.a.b.c.d.e.f.g.h.i.j.k.l.m.m.m.m.m.m.m.m.m.m.m.m.m.m.m.m.m.m",
".#.n.b.o.p.q.r.s.h.i.j.k.t.u.m.m.m.m.m.m.m.m.m.m.m.m.m.m.m.m.m.m",
".a.b.v.p.l.l.l.w.x.j.y.t.y.z.l.m.A.A.m.m.m.m.m.m.m.m.m.m.m.m.m.m",
".b.o.p.l.m.m.m.l.B.C.t.D.j.E.F.l.l.G.H.A.I.J.J.m.m.m.m.m.m.m.m.m",
".K.p.l.m.m.m.m.m.l.L.y.j.i.h.M.N.O.l.A.P.J.J.H.l.m.m.m.m.m.m.m.m",
".d.Q.l.m.m.m.m.m.l.R.S.T.U.V.W.X.Y.l.P.J.J.H.l.Z.H.m.m.m.m.m.m.m",
".0.1.l.m.m.m.m.m.l.2.3.4.5.6.7.8.9.l.J.J.H.l.H.A.A.Z.m.m.m.m.m.m",
".f#.##.l.m.m.m.l#a#b#c.5#d#e#f#g#h#i#j#k.J#l.A.A#m.J.J.m.m.m.m.m",
".g.h#n#o.l.l.l#a#p#c.g#q#r#s#t#u#v#w#x#i#j#k#l#y.J.J.J.J.m.m.m.m",
".h.i.j#z#A#B#a#C.U.V#D#E#F#G#G#H#I#J#K#L#x#i#j#k.J.J.J.I.l.m.m.m",
".i.j.y.t.y#M#N.h.5#O#P#Q#a#a#a#I#I#R#Q#S#T#U#x#i#j#k.I.l.l.m.m.m",
".j#V.t.k.j.T#c#W#X#Y#Z#a#a#a#I#I#I#I#0#1#2#3#4#U#x#2.l.l.l.l.m.m",
".y.t.y.j#N.4.5.W#5#6#a#a#a#a#a#I#I#R#I.G#7.Z#8#3#9.l.l.l#a.l.m.m",
".l.la.a##c#W.f.7aaab#Gac#a#a#G#H#Iadae#Iafagahai.l.l.l#a#a.H.m.m",
".l.l.l.waj.f.7ak#gal#Hacamam#Hanaoapaq#I#Karas.l.l.l#a#a#aat.H.m",
".m.m.m.lau.X.p.lav#vawacaxanacaoayazaA#Iabav.l.l.l.l.l#uat.H.H.m",
".m.m.A.laB.8.9.laCaD#J#Rac#RacacazaE#Z#K#v.Z.l.l#a.l.m.A.H.H.m.m",
".m.m.A.G.l.l.laFaGaHaI#Q#0acacacac#ZaJaK#9.l.l#a#a.H.m#l.A.Z.m.m",
".m.m.H.A.AaL.l.laMaFaN#S#1.Gacac#7#KaKaO.Z.l#a#a#a#u.H.m.A.m.m.m",
".m.m.A.m.l.laL.l.l.laMaPaQ#7ac#Kab#vaRaS.l.l.l#u#u.H.H.m.A.m.m.m",
".m.m.A.m.l.l.laL.l.l.l.laM.Zavarav.Z.l.l#a.l.m.A.H.H#l.m.m.m.m.m",
".m.m.m.m.l.l.l.laL.l.l.l.l.laMaT.l.l.l#a#a.H.m#l.A.Z.m.m.m.m.m.m",
".m.m.m.m.m.l.l.l.laL.l.l.l.laL.l.l.l.G.GaiaL.H.m.A.m.m.m.m.m.m.m",
".m.m.m.m.m.l.l.l.l.laL.l.laL.l.l.l.l.laiaL.H.H.m.A.m.m.m.m.m.m.m",
".m.m.m.m.m.m.l.l.l.l.laLaL.l.l.l#a.l.m.A.H.H#l.m.m.m.m.m.m.m.m.m",
".m.m.m.m.m.m.m.l.l.l.l.A.H.l.l#a.G.H.m#l.A.Z.m.m.m.m.m.m.m.m.m.m",
".m.m.m.m.m.m.m.m.l.l.l.l.H.l#a.GaiaL.H.m.A.m.m.m.m.m.m.m.m.m.m.m",
".m.m.m.m.m.m.m.m.m.l.l.l.H.l.laiaL.H.H.m.A.m.m.m.m.m.m.m.m.m.m.m",
".m.m.m.m.m.m.m.m.m.m.l.H.l.A.m.l.H.H#l.m.m.m.m.m.m.m.m.m.m.m.m.m",
".m.m.m.m.m.m.m.m.m.m.m.m.m.m.m#l.l.Z.m.m.m.m.m.m.m.m.m.m.m.m.m.m",
".m.m.m.m.m.m.m.m.m.m.m.m.m.m.m.m.l.m.m.m.m.m.m.m.m.m.m.m.m.m.m.m",
".m.m.m.m.m.m.m.m.m.m.m.m.m.m.m.m.l.m.m.m.m.m.m.m.m.m.m.m.m.m.m.m"};
