/* XPM */
static char * test_pic_reset_desel_xpm[] = {
"32 32 48 1",
" 	c None",
".	c #F9FBF9",
"+	c #F1F1EB",
"@	c #E7E6DB",
"#	c #DCDCCE",
"$	c #D4D2C4",
"%	c #CACAB8",
"&	c #BFBFAE",
"*	c #B4B4A4",
"=	c #A9A99D",
"-	c #9E9E97",
";	c #949492",
">	c #8C8C8E",
",	c #88868C",
"'	c #000000",
")	c #FFFFFF",
"!	c #FFFF00",
"~	c #A60000",
"{	c #000012",
"]	c #0C0029",
"^	c #617AFF",
"/	c #00000F",
"(	c #EEFFFF",
"_	c #FFABFF",
":	c #002529",
"<	c #7367B3",
"[	c #D2D2C1",
"}	c #000042",
"|	c #040012",
"1	c #7B0048",
"2	c #000059",
"3	c #C0C0AE",
"4	c #CEFFFF",
"5	c #0B0000",
"6	c #AC8700",
"7	c #2A2A2A",
"8	c #060606",
"9	c #252529",
"0	c #310029",
"a	c #000412",
"b	c #560B48",
"c	c #920066",
"d	c #86868C",
"e	c #D1FFFF",
"f	c #00D066",
"g	c #A4A4A4",
"h	c #303000",
"i	c #EDEDBB",
".+@#$%&*=-;>,'                  ",
"+))!''~))){])'                  ",
"@))!''')))^/))' ))              ",
"#!!'   '(_):<))''))')')         ",
"[''     ')}|'')))'')'')'        ",
"%!'     ')'12))))')'')'))       ",
"3)'     ')'4))'5)''')')'')      ",
"*))'   '))'))'''''''')'')')     ",
"='))'''))')'''))))''''))''')    ",
"-'')))))')''))))')))''''''')'   ",
";{'''''')6'))))''))))'78'')''   ",
">9/0abc))'))))'''')))'''')''''  ",
"d)))ef))'')))))'')')))'')''')'  ",
"'''))))''))'))))'))'))')'''))'  ",
"''')))'!'))')))))))')))'''))))) ",
"   '))!')))'))'))))'))'''''))') ",
"  )')!)'')))')''))))))'')' '')  ",
"  ')'''''')))'''')g))''))' )')  ",
"  )'')''''))))'')))))'))))) h   ",
"  ) '')'''')))')))))'''))') )   ",
"  ) ''')''''')))))'')' ''')     ",
"    '''')'''''')'''))' )')      ",
"     '''')'''')'''))))) h       ",
"     ''''')'')'''''))') )       ",
"      '''''))''')' ''')         ",
"       ''''')''))' )')          ",
"        '''')'))))) h           ",
"         ''')''))') )           ",
"          ')') ''i)             ",
"               )')              ",
"                '               ",
"                '               "};
