/* XPM */
static char *test_pic[]={
"32 32 148 2",
"Qt c None",
".o c #000000",
"ab c #010101",
"#7 c #020202",
".# c #020204",
".5 c #040404",
"al c #050505",
"am c #060606",
".6 c #070709",
"af c #080808",
"## c #090909",
"ag c #0a0a0a",
"a# c #0c0c0c",
"#i c #101012",
"#5 c #151515",
"#Z c #171717",
"#O c #181818",
"a. c #19191b",
"#P c #1a1a1a",
"#Q c #1b1b1b",
"#E c #1c1c1c",
"ao c #1c1c1d",
"#F c #1e1e1e",
"#G c #1f1f1f",
"#H c #202020",
"#s c #222222",
"ac c #222224",
"#t c #232323",
"#u c #252525",
"#o c #262626",
"#p c #272727",
"#e c #292929",
".2 c #2a2a2a",
".N c #2b2b2b",
"aj c #2b2b2c",
".O c #2d2d2d",
".P c #2e2e2e",
".h c #2f2f2f",
".c c #303030",
".4 c #393939",
".f c #585858",
"#D c #595958",
".F c #5b5b5c",
".W c #656566",
"#8 c #686869",
"#n c #747474",
"#m c #7c7c7c",
".v c #808080",
"ae c #848486",
".u c #858584",
"ak c #878788",
".1 c #898987",
"ai c #8c8c8c",
"#l c #8c8c8e",
".k c #8e8e8d",
"aq c #8e8e8e",
"#9 c #8e8e8f",
"#Y c #929293",
"ap c #939393",
".V c #969694",
"an c #979797",
"#N c #9a9a9a",
"ah c #9c9c9c",
"#X c #9c9c9e",
"#c c #9f9f9e",
"aa c #a0a0a0",
".Q c #a0a0a4",
"#6 c #a4a4a4",
".9 c #a4a4a5",
"#4 c #a7a7a6",
"ad c #a9a9a8",
"#0 c #a9a9a9",
"#W c #ababad",
"#C c #acacad",
"#k c #adadac",
"#R c #adadad",
"#3 c #aeaeac",
"#d c #afafad",
".e c #b0b0b0",
"#g c #b1b1b0",
"#b c #b1b1b1",
".X c #b1b1b2",
"#2 c #b3b3b1",
"#M c #b4b4b4",
"#r c #b4b4b5",
"#B c #b5b5b3",
"#A c #b6b6b4",
"#v c #b6b6b6",
"#q c #b7b7b6",
"#j c #b8b8b7",
"#a c #bababa",
"#V c #bbbbba",
".M c #bcbcbc",
".0 c #bdbdbc",
".n c #bdbdbd",
".8 c #bdbdbf",
"#L c #bebebc",
"#U c #bfbfbe",
".g c #bfbfbf",
".R c #c0c0c0",
"#T c #c1c1c0",
".7 c #c1c1c2",
".3 c #c1c1c3",
"#K c #c3c3c4",
".Z c #c4c4c4",
".t c #c5c5c4",
".m c #c6c6c4",
"#z c #c6c6c5",
".Y c #c7c7c5",
"#J c #c7c7c6",
".L c #c7c7c7",
"#f c #cacac9",
".K c #cacacb",
"#y c #cbcbcb",
".b c #cbcbcc",
".E c #cccccc",
".J c #cccccd",
".C c #cfcfcf",
"#h c #d0d0cf",
"#x c #d1d1cf",
".B c #d1d1d1",
"#I c #d2d2d1",
"#1 c #d2d2d2",
"#. c #d3d3d2",
".A c #d3d3d4",
".z c #d5d5d4",
".D c #d5d5d5",
".U c #d7d7d6",
".I c #d7d7d7",
".H c #d8d8d8",
".r c #d9d9d8",
".q c #dadad8",
"ar c #dadada",
".T c #dadadc",
".y c #dbdbda",
".G c #dddddc",
".i c #dededc",
".x c #dfdfde",
".S c #dfdfe0",
".s c #e1e1e0",
"#S c #e1e1e1",
".l c #e4e4e4",
".w c #e8e8e6",
".p c #e9e9e7",
".a c #f0f0ee",
".j c #f0f0ef",
".d c #f2f2f0",
"#w c #ffffff",
"QtQtQtQtQtQtQtQtQtQtQtQtQtQtQtQtQtQtQtQtQtQtQtQtQtQtQtQtQtQtQtQt",
"QtQtQtQtQtQtQtQtQtQt.#.#QtQtQtQtQtQtQtQtQtQtQtQtQtQtQtQtQtQtQtQt",
"QtQtQtQtQtQtQtQtQt.#.a.b.#QtQtQt.c.cQtQtQtQtQtQtQtQtQtQtQtQtQtQt",
"QtQtQtQt.#.#QtQtQt.#.d.e.#QtQt.c.#.#.f.c.g.h.hQtQtQtQtQtQtQtQtQt",
"QtQtQt.#.i.d.#Qt.#.#.j.k.#.#.c.#.l.m.#.n.h.h.f.oQtQtQtQtQtQtQtQt",
"QtQtQt.#.d.i.p.#.d.d.q.r.s.t.#.l.m.u.#.h.h.f.o.v.fQtQtQtQtQtQtQt",
"QtQtQtQt.#.w.x.i.s.y.z.A.B.C.D.E.F.#.h.h.f.o.f.c.c.vQtQtQtQtQtQt",
"QtQtQtQtQt.#.i.G.H.I.A.B.J.K.L.M.#.N.O.P.h.Q.c.c.R.h.hQtQtQtQtQt",
"QtQtQtQt.#.d.S.T.U.V.W.W.X.Y.Z.0.1.#.2.N.O.P.Q.3.h.h.h.hQtQtQtQt",
"QtQt.#.#.#.d.y.I.V.4.5.6.k.K.7.8.9.#.#.#.2.N.O.P.h.h.h.g.oQtQtQt",
"Qt.#.a.d.d.q.z#..W.5.f.c##.l.0#a#b#c#d#b.##e.2.N.O.P.g.o.oQtQtQt",
"Qt.##f#g.k.r.A#h.W.6.f.c#i.d.M#j#k#l#m#n.##o#p#e.2#a.o.o.o.oQtQt",
"QtQt.#.#.#.s.B.J#d.k###i.d.q#q#r#l.#.#.##s#t#u#o#v.o.o.o#w.oQtQt",
"QtQtQtQt.#.t#x#y#z.K.l.d.r#A#B#C#D.##E#F#G#H#s#b.o.o.o#w#w.fQtQt",
"QtQtQtQt.c.##I#J#K.7#L.M#q#M.X#N.##O#P#Q#E#F#R.o.o.o#w#w#w#S.fQt",
"QtQtQt.c.#.l#J#T#U.g#V#j#r#W#X.X#Y.##Z#O#P#0.o.o.o.o.o#1#S.f.fQt",
"QtQt.c.#.l#z.F.#.1.9#2#3#l#D.##N#4#m.##5#6.o.o.o#w.oQt.c.f.fQtQt",
"QtQt.c.#.m.u.##7.#.##8#9a..#a#.##m#n.#aa.o.o.o#w#w.fQt.Q.c.vQtQt",
"QtQt.f.c.#.#.o.oabacadae.#af##ag.#.#ah.o.o.o#w#w#w#1.fQt.cQtQtQt",
"QtQt.cQt.o.oai.o.oaj.mak.#alamaf##an.o.o.o.o.o#1#1.f.fQt.cQtQtQt",
"QtQt.cQt.o.o.oai.o.o.#aoab#7.5alap.o.o.o#w.oQt.c.f.f.QQtQtQtQtQt",
"QtQtQtQt.o.o.o.oai.o.o.o.o.oabaq.o.o.o#w#w.fQt.Q.c.vQtQtQtQtQtQt",
"QtQtQtQtQt.o.o.o.oai.o.o.o.oai.o.o.oarar#bai.fQt.cQtQtQtQtQtQtQt",
"QtQtQtQtQt.o.o.o.o.oai.o.oai.o.o.o.o.o#bai.f.fQt.cQtQtQtQtQtQtQt",
"QtQtQtQtQtQt.o.o.o.o.oaiai.o.o.o#w.oQt.c.f.f.QQtQtQtQtQtQtQtQtQt",
"QtQtQtQtQtQtQt.o.o.o.o.c.f.o.o#war.fQt.Q.c.vQtQtQtQtQtQtQtQtQtQt",
"QtQtQtQtQtQtQtQt.o.o.o.o.f.o#war#bai.fQt.cQtQtQtQtQtQtQtQtQtQtQt",
"QtQtQtQtQtQtQtQtQt.o.o.o.f.o.o#bai.f.fQt.cQtQtQtQtQtQtQtQtQtQtQt",
"QtQtQtQtQtQtQtQtQtQt.o.f.o.cQt.o.f.f.QQtQtQtQtQtQtQtQtQtQtQtQtQt",
"QtQtQtQtQtQtQtQtQtQtQtQtQtQtQt.Q.o.vQtQtQtQtQtQtQtQtQtQtQtQtQtQt",
"QtQtQtQtQtQtQtQtQtQtQtQtQtQtQtQt.oQtQtQtQtQtQtQtQtQtQtQtQtQtQtQt",
"QtQtQtQtQtQtQtQtQtQtQtQtQtQtQtQt.oQtQtQtQtQtQtQtQtQtQtQtQtQtQtQt"};
