/* XPM */
static char * verify_pic_xpm[] = {
"32 32 49 1",
" 	c None",
".	c #2F2F2F",
"+	c #9F9FA3",
"@	c #575757",
"#	c #7F7F7F",
"$	c #DBDBDB",
"%	c #000000",
"&	c #FFFFFF",
"*	c #F2F7EF",
"=	c #BFBFBF",
"-	c #F9F9F9",
";	c #C6C6C6",
">	c #7B7B7B",
",	c #555555",
"'	c #6E6E6E",
")	c #DFDFDF",
"!	c #ECECEC",
"~	c #430F0F",
"{	c #1A320F",
"]	c #D9D9D9",
"^	c #102705",
"/	c #F0C9C3",
"(	c #F6F6F6",
"_	c #646464",
":	c #ECD3D1",
"<	c #FEFCFC",
"[	c #979797",
"}	c #1F2E19",
"|	c #F9DCDB",
"1	c #DCDCDC",
"2	c #7E7E7E",
"3	c #142F08",
"4	c #BC5555",
"5	c #F4E9E9",
"6	c #F2F2F2",
"7	c #9A9A9A",
"8	c #353834",
"9	c #1F3F10",
"0	c #62615F",
"a	c #291F0E",
"b	c #3D3E32",
"c	c #724343",
"d	c #643D3D",
"e	c #5A4641",
"f	c #C2BDBB",
"g	c #878787",
"h	c #674242",
"i	c #673F3F",
"j	c #381918",
"                                ",
"                                ",
"                ..              ",
"               .++@.#..         ",
"              .#$$. ..@%        ",
"              .#$.+..@%#@       ",
"            ..@..+..@%@..#      ",
"           .++&&&&&*.+..=..     ",
"          .#&&&&&&&&&.++....    ",
"          .#-;>,')&&&!.....#%   ",
"        ..@..~....&&&&{...+%%   ",
"       .++@.#.....&&&]^..+%%%%  ",
"      .#$$.+...../&&(_..+%%%+%  ",
"      .#$.#...%.:<&&[}%+%%%$+@  ",
"    ..@..#.%.%|&&&123%+%%%$$++@ ",
"   .++@.#.%.45&&6789%#%%%%%$#@@ ",
"  .#$$.#.%.%.&&&0a.%+%%%+% .@@  ",
"  .#$.#%%.%%%&&&b.%#%%%$+@ +.#  ",
"  @..#%%%%%%%cde%%+%%%$$++@ .   ",
"  . %%#%%%%%%%%%%#%%%%%$#@@ .   ",
"  . %%%#%%%%&&&f#%%%+% .@@+     ",
"    %%%%#%%%&&&g%%%$+@ +.#      ",
"     %%%%#%%%hij%%$$++@ .       ",
"     %%%%%#%%#%%%%%$#@@ .       ",
"      %%%%%##%%%+% .@@+         ",
"       %%%%.@%%$+@ +.#          ",
"        %%%%.%$$++@ .           ",
"         %%%.%%$#@@ .           ",
"          %.%. .@@+             ",
"               +.#              ",
"                .               ",
"                .               "};
