/* XPM */
static char * verify_pic_desel_xpm[] = {
"32 32 8 1",
" 	c None",
".	c #000000",
"+	c #FFFFFF",
"@	c #DCDCDC",
"#	c #0B0B0B",
"$	c #2F2F2F",
"%	c #0F0F0F",
"&	c #6E6E6E",
"                                ",
"                                ",
"                ..              ",
"               .+++++++         ",
"              ++++. ..+.        ",
"              .++.+.@+.++       ",
"            .....#..+.+..+      ",
"           .+.++++++.+..+.+     ",
"          +++++++++++.++...+    ",
"          .+++...+++++.....+.   ",
"        ..+.......++++.+..+..   ",
"       .++..+.+$..++++...+....  ",
"      ++++.+..+..++++...+...+.  ",
"      .++.+.....+++++..+...++.  ",
"    ..+..+....+++++%..+...++&++ ",
"   .++..+..+++++++...+.....+..+ ",
"  ++++.+..+..+++....+...+. ..+  ",
"  .++.+..+...+++...+...++. +.+  ",
"  +..+.......+....+...++&++ .   ",
"  + ..+..........+.....+..+ +   ",
"  + ...+....+++++...+. ...+     ",
"    ....+...++++...++. +.+      ",
"     ....+........++&++ .       ",
"     .....+..+.....+..+ +       ",
"      .....++...+. ...+         ",
"       .....+..++. +.+          ",
"        ....+.++&++ .           ",
"         ...+..+..+ +           ",
"          .+.+ ...+             ",
"               +.+              ",
"                .               ",
"                $               "};
