/* XPM */
static char * write_pic_desel_xpm[] = {
"32 32 12 1",
" 	c None",
".	c #000000",
"+	c #FFFFFF",
"@	c #2B2B2B",
"#	c #DCDCDC",
"$	c #757575",
"%	c #2F2F2F",
"&	c #E9E9E9",
"*	c #494949",
"=	c #6E6E6E",
"-	c #0A0A0A",
";	c #C0C0C0",
"                                ",
"                                ",
"                ..              ",
"               .+++++++         ",
"      ..@     ++++. ..+.        ",
"     .+++.    .++.+.#+.++       ",
"    .++.++. ..+..+..+.+..+      ",
"   $+++.+++.++..+....+..+.+     ",
"   +++...+++.+.+..%%..++...+    ",
"    ...+..+++.+..%%%%......+.   ",
"     +&.+..+++...%%%%%%%..+..   ",
"      *..+..+++...%%%%%..+....  ",
"      +...+..+++...+%+..+...+.  ",
"      .+...+..+++..++..+...++.  ",
"    ..+.....+..+++..&.+...++=++ ",
"   .++..+....+..+++..+.....+..+ ",
"  ++++.+..+.-.+..+++....+. ..+  ",
"  .++.+..+..+..+..++++.++. +.+  ",
"  +..+.......+..+..+++.++++ .   ",
"  + ..+.......+..+..++....+ +   ",
"  + ...+..........+..+++..+     ",
"    ....+......+.+.+..++.+      ",
"     ....+....+..+.++++++.      ",
"     .....+..+....++..;+++      ",
"      .....++...+. ..+.++++     ",
"       .....+..++. +.++++++     ",
"        ....+.++.++ +  ++++     ",
"         ...+..+..+ +     .+    ",
"          .+.+ ...+             ",
"               +.+              ",
"                .               ",
"                %               "};
