/* XPM */
static char * write_pic_xpm[] = {
"32 32 109 2",
"  	c None",
". 	c #2F2F2F",
"+ 	c #9F9FA3",
"@ 	c #575757",
"# 	c #7F7F7F",
"$ 	c #4E2604",
"% 	c #562E14",
"& 	c #DBDBDB",
"* 	c #000000",
"= 	c #5A2E0C",
"- 	c #D69A74",
"; 	c #E6B294",
"> 	c #CA8244",
", 	c #66320C",
"' 	c #623614",
") 	c #F2C2A4",
"! 	c #FEDAC4",
"~ 	c #F6A25C",
"{ 	c #EEAA74",
"] 	c #DE8E4C",
"^ 	c #D6A284",
"/ 	c #F69E54",
"( 	c #EE7A14",
"_ 	c #FEDAA4",
": 	c #F6B27C",
"< 	c #EE9A54",
"[ 	c #82461C",
"} 	c #BFBFBF",
"| 	c #BA8264",
"1 	c #D2763C",
"2 	c #E66E04",
"3 	c #EA6E04",
"4 	c #EE7E14",
"5 	c #FEB67C",
"6 	c #8A5F3C",
"7 	c #522604",
"8 	c #6E3204",
"9 	c #A64E04",
"0 	c #F27604",
"a 	c #FA7A04",
"b 	c #FA8614",
"c 	c #FABE7C",
"d 	c #EE9E54",
"e 	c #824A1C",
"f 	c #7E3A04",
"g 	c #FE7E04",
"h 	c #FE8A14",
"i 	c #F29E54",
"j 	c #93521D",
"k 	c #562604",
"l 	c #9E561C",
"m 	c #FE8204",
"n 	c #FE8E1C",
"o 	c #854B19",
"p 	c #FA7E04",
"q 	c #9A5214",
"r 	c #964E14",
"s 	c #FA8A1C",
"t 	c #010000",
"u 	c #F67A04",
"v 	c #A25A1C",
"w 	c #F28214",
"x 	c #E6924C",
"y 	c #A66C3B",
"z 	c #0C0B0A",
"A 	c #D28644",
"B 	c #010101",
"C 	c #0F0F0E",
"D 	c #EE7204",
"E 	c #F6A65C",
"F 	c #FADACC",
"G 	c #704225",
"H 	c #7A7978",
"I 	c #F28E44",
"J 	c #FAD2B4",
"K 	c #B27664",
"L 	c #080706",
"M 	c #622E0C",
"N 	c #966654",
"O 	c #C27E5C",
"P 	c #DA9E7C",
"Q 	c #FACEB4",
"R 	c #F2CABC",
"S 	c #72462C",
"T 	c #8A5644",
"U 	c #965E3C",
"V 	c #BA7254",
"W 	c #EEC2A4",
"X 	c #F6CEBC",
"Y 	c #B67A6C",
"Z 	c #6E320C",
"` 	c #824E3C",
" .	c #EEC6B4",
"..	c #7E523C",
"+.	c #DADADA",
"@.	c #9C9B9F",
"#.	c #763E1C",
"$.	c #D29674",
"%.	c #BA9684",
"&.	c #AE7264",
"*.	c #9E9EA2",
"=.	c #6E5244",
"-.	c #5A4E44",
";.	c #313131",
">.	c #D9D9D9",
",.	c #818181",
"'.	c #5B5B5B",
").	c #060604",
"!.	c #121214",
"                                                                ",
"                                                                ",
"                                . .                             ",
"                              . + + @ . # . .                   ",
"            $ $ %           . # & & .   . . @ *                 ",
"          = - ; > ,         . # & . + . . @ * # @               ",
"        ' ) ! ~ { ] =   . . @ . . + . . @ * @ . . #             ",
"      = ^ ! / ( _ : < [ + + @ . + . . . . + . . } . .           ",
"      = | 1 2 3 4 _ 5 < 6 & . + . . . . . . + + . . . .         ",
"        7 8 9 0 a b _ c d e # . . . . . . . . . . . . # *       ",
"          7 f 9 a g h _ 5 i j . . . . . . . . . . . + * *       ",
"            k f 9 g g h _ 5 / l . . . . . . . . . + * * * *     ",
"            . k f 9 m m n _ 5 / o . . . . . . . + * * * + *     ",
"            . # 7 f 9 p m h _ 5 / l * . . . * + * * * & + @     ",
"        . . @ . . 7 f 9 m m n _ 5 / q * . * + * * * & & + + @   ",
"      . + + @ . # . k f 9 g g h _ 5 < r * # * * * * * & # @ @   ",
"    . # & & . # . * . 7 f 9 m p s _ 5 i q * * * + *   . @ @     ",
"    . # & . # * * . * t k f 9 p u b _ 5 / v * & + @   + . #     ",
"    @ . . # * * * * * * * k f 9 0 0 w _ : x y & + + @   .       ",
"    .   * * # * * * * * * z k f 9 0 0 ( c { A q # @ @   .       ",
"    .   * * * # * * * * * B C k f 9 3 3 D E F ; G @ +           ",
"        * * * * # * * * * * * H k f 9 3 2 I J F K #             ",
"          * * * * # * * * * # * L 7 M N O P ) Q R S             ",
"          * * * * * # * * # * * * * = T U V - W X Y             ",
"            * * * * * # # * * * + *   Z ` U V - X  ...          ",
"              * * * * . @ * * +.+ @   @.. #.` V $.%.&.          ",
"                * * * * . * & +.*.+ @   .     #.=.-.-.          ",
"                  * * * ;.* * >.,.'.@   .           ).!.        ",
"                    * . * .   . @ @ +                           ",
"                              + . #                             ",
"                                .                               ",
"                                .                               "};
