/* XPM */
static char *closed_icon_xpm[] = { 
/* width height num_colors chars_per_pixel */ 
"     16     16        3            1", 
/* colors */ 
". c None", 
"# c #000000", 
"_ c #ffffff", 
/* pixels */ 
"................", 
"................", 
"................", 
"....#########...", 
"....#_______#...", 
"....#___#___#...", 
"....#___#___#...", 
"....#_#####_#...", 
"....#___#___#...", 
"....#___#___#...", 
"....#_______#...", 
"....#########...", 
"................", 
"................", 
"................", 
"................" 
}; 
