/* XPM */
static char *empty_icon_xpm[] = {
/* width height num_colors chars_per_pixel */
"     16     16        3            1",
/* colors */
". c None",
"# c #000000",
"_ c #ffffff",
/* pixels */
"................", 
"................", 
"................", 
"....#########...", 
"....#_______#...", 
"....#_#___#_#...", 
"....#__#_#__#...", 
"....#___#___#...", 
"....#__#_#__#...", 
"....#_#___#_#...", 
"....#_______#...", 
"....#########...", 
"................", 
"................", 
"................", 
"................" 
};
