/* XPM */
static const char *open_icon_xpm[] = {
/* width height num_colors chars_per_pixel */
"     16     16        3            1",
/* colors */
". c None",
"# c #000000",
"_ c #ffffff",
/* pixels */
"................", 
"................", 
"................", 
"....#########...", 
"....#_______#...", 
"....#_______#...", 
"....#_______#...", 
"....#_#####_#...", 
"....#_______#...", 
"....#_______#...", 
"....#_______#...", 
"....#########...", 
"................", 
"................", 
"................", 
"................" 
};
